<?xml version="1.0" encoding="UTF-8"?>
<svg xmlns="http://www.w3.org/2000/svg" xmlns:xlink="http://www.w3.org/1999/xlink" width="184px" height="41px" viewBox="0 0 94 21" version="1.1">
<g id="surface1">
<path style=" stroke:none;fill-rule:nonzero;fill:rgb(100%,100%,100%);fill-opacity:1;" d="M 14.34375 18.40625 C 16.65625 18.40625 18.53125 16.527344 18.53125 14.210938 C 18.53125 11.890625 16.65625 10.011719 14.34375 10.011719 L 10.15625 10.011719 L 10.15625 18.40625 Z M 14.34375 18.40625 "/>
<path style=" stroke:none;fill-rule:nonzero;fill:rgb(100%,100%,100%);fill-opacity:1;" d="M 14.179688 8.394531 C 16.492188 8.394531 18.363281 6.515625 18.363281 4.195312 C 18.363281 1.878906 16.492188 0 14.179688 0 L 14 0 C 11.785156 0 9.992188 1.800781 9.992188 4.019531 L 9.992188 8.394531 Z M 14.179688 8.394531 "/>
<path style=" stroke:none;fill-rule:nonzero;fill:rgb(100%,100%,100%);fill-opacity:1;" d="M 0 0 L 8.371094 0 L 8.371094 18.402344 L 0 18.402344 Z M 31.402344 10.585938 C 32.246094 11.644531 32.328125 13.125 31.605469 14.273438 C 31.257812 14.796875 30.765625 15.210938 30.191406 15.46875 C 29.515625 15.769531 28.777344 15.921875 28.039062 15.90625 L 23.085938 15.90625 L 23.085938 3.5 L 27.804688 3.5 C 28.550781 3.480469 29.292969 3.625 29.976562 3.925781 C 30.535156 4.171875 31.007812 4.570312 31.347656 5.078125 C 31.65625 5.558594 31.816406 6.121094 31.808594 6.695312 C 31.832031 7.335938 31.632812 7.96875 31.238281 8.476562 C 30.839844 8.96875 30.308594 9.332031 29.707031 9.53125 C 30.382812 9.65625 30.988281 10.03125 31.402344 10.585938 Z M 25.117188 8.710938 L 27.628906 8.710938 C 28.183594 8.742188 28.734375 8.582031 29.183594 8.253906 C 29.570312 7.933594 29.777344 7.445312 29.746094 6.941406 C 29.769531 6.441406 29.5625 5.960938 29.183594 5.632812 C 28.738281 5.296875 28.1875 5.128906 27.625 5.160156 L 25.117188 5.160156 Z M 29.476562 13.742188 C 29.875 13.394531 30.09375 12.882812 30.0625 12.351562 C 30.089844 11.800781 29.859375 11.265625 29.441406 10.90625 C 28.972656 10.53125 28.382812 10.339844 27.785156 10.371094 L 25.117188 10.371094 L 25.117188 14.242188 L 27.859375 14.242188 C 28.441406 14.277344 29.015625 14.101562 29.476562 13.742188 Z M 42.96875 11.746094 L 35.476562 11.746094 C 35.535156 13.238281 36.785156 14.402344 38.273438 14.351562 C 39.253906 14.417969 40.171875 13.871094 40.585938 12.976562 L 42.773438 12.976562 C 42.484375 13.871094 41.921875 14.648438 41.164062 15.199219 C 40.320312 15.796875 39.304688 16.101562 38.273438 16.066406 C 37.390625 16.078125 36.523438 15.859375 35.753906 15.429688 C 35.015625 15.011719 34.410156 14.394531 34.007812 13.644531 C 33.574219 12.824219 33.355469 11.90625 33.375 10.976562 C 33.355469 10.050781 33.566406 9.132812 33.988281 8.308594 C 34.378906 7.5625 34.980469 6.945312 35.714844 6.535156 C 36.5 6.109375 37.378906 5.890625 38.269531 5.910156 C 39.132812 5.894531 39.984375 6.101562 40.746094 6.515625 C 41.457031 6.910156 42.046875 7.503906 42.433594 8.222656 C 42.847656 8.996094 43.058594 9.867188 43.039062 10.746094 C 43.042969 11.082031 43.019531 11.414062 42.96875 11.746094 Z M 40.921875 10.105469 C 40.9375 9.410156 40.644531 8.75 40.121094 8.296875 C 39.582031 7.839844 38.890625 7.597656 38.179688 7.621094 C 37.519531 7.605469 36.875 7.84375 36.382812 8.289062 C 35.871094 8.761719 35.554688 9.40625 35.492188 10.101562 Z M 47.070312 7.726562 L 47.070312 13.171875 C 47.042969 13.460938 47.136719 13.75 47.328125 13.964844 C 47.582031 14.152344 47.898438 14.238281 48.210938 14.207031 L 49.457031 14.207031 L 49.457031 15.902344 L 47.855469 15.902344 C 47.101562 15.953125 46.351562 15.722656 45.753906 15.257812 C 45.21875 14.703125 44.953125 13.941406 45.023438 13.171875 L 45.023438 7.726562 L 43.867188 7.726562 L 43.867188 6.070312 L 45.023438 6.070312 L 45.023438 3.625 L 47.070312 3.625 L 47.070312 6.070312 L 49.457031 6.070312 L 49.457031 7.726562 Z M 52.738281 15.429688 C 51.996094 15.011719 51.386719 14.394531 50.976562 13.644531 C 50.539062 12.824219 50.316406 11.90625 50.335938 10.976562 C 50.320312 10.046875 50.546875 9.128906 50.996094 8.316406 C 51.414062 7.5625 52.035156 6.945312 52.792969 6.53125 C 54.386719 5.699219 56.285156 5.699219 57.882812 6.53125 C 58.636719 6.945312 59.261719 7.5625 59.679688 8.316406 C 60.128906 9.128906 60.355469 10.046875 60.335938 10.976562 C 60.355469 11.90625 60.121094 12.828125 59.660156 13.636719 C 59.226562 14.394531 58.589844 15.015625 57.820312 15.429688 C 57.027344 15.855469 56.144531 16.074219 55.246094 16.0625 C 54.371094 16.074219 53.503906 15.855469 52.738281 15.425781 Z M 56.71875 13.921875 C 57.1875 13.660156 57.574219 13.269531 57.832031 12.792969 C 58.128906 12.234375 58.277344 11.609375 58.257812 10.972656 C 58.277344 10.34375 58.136719 9.722656 57.847656 9.164062 C 57.601562 8.695312 57.222656 8.308594 56.761719 8.046875 C 56.316406 7.796875 55.8125 7.667969 55.300781 7.671875 C 54.792969 7.667969 54.292969 7.796875 53.851562 8.046875 C 53.398438 8.308594 53.027344 8.695312 52.792969 9.164062 C 52.515625 9.726562 52.382812 10.347656 52.402344 10.972656 C 52.34375 11.867188 52.632812 12.746094 53.210938 13.425781 C 53.734375 13.996094 54.476562 14.3125 55.25 14.292969 C 55.761719 14.296875 56.269531 14.167969 56.71875 13.917969 Z M 69 6.390625 C 69.609375 6.710938 70.109375 7.210938 70.433594 7.820312 C 70.792969 8.523438 70.972656 9.3125 70.949219 10.105469 L 70.949219 15.902344 L 68.9375 15.902344 L 68.9375 10.40625 C 68.984375 9.671875 68.75 8.945312 68.277344 8.378906 C 67.808594 7.898438 67.152344 7.640625 66.480469 7.675781 C 65.804688 7.640625 65.148438 7.898438 64.675781 8.378906 C 64.199219 8.941406 63.960938 9.667969 64.007812 10.40625 L 64.007812 15.902344 L 61.980469 15.902344 L 61.980469 6.070312 L 64.007812 6.070312 L 64.007812 7.195312 C 64.351562 6.785156 64.785156 6.460938 65.28125 6.25 C 65.796875 6.023438 66.359375 5.90625 66.925781 5.910156 C 67.644531 5.898438 68.355469 6.0625 68.996094 6.390625 Z M 78.960938 6.367188 C 79.503906 6.632812 79.976562 7.019531 80.339844 7.5 L 80.339844 6.070312 L 82.386719 6.070312 L 82.386719 16.0625 C 82.402344 16.90625 82.207031 17.734375 81.816406 18.480469 C 81.441406 19.1875 80.871094 19.765625 80.171875 20.148438 C 79.382812 20.570312 78.496094 20.78125 77.597656 20.757812 C 76.425781 20.800781 75.265625 20.472656 74.289062 19.820312 C 73.4375 19.238281 72.886719 18.304688 72.792969 17.277344 L 74.804688 17.277344 C 74.96875 17.796875 75.320312 18.242188 75.792969 18.515625 C 76.339844 18.84375 76.964844 19.007812 77.597656 18.992188 C 78.335938 19.023438 79.050781 18.75 79.585938 18.242188 C 80.121094 17.648438 80.394531 16.863281 80.339844 16.0625 L 80.339844 14.421875 C 79.527344 15.476562 78.269531 16.082031 76.941406 16.0625 C 76.113281 16.070312 75.304688 15.84375 74.601562 15.410156 C 73.886719 14.96875 73.308594 14.339844 72.925781 13.589844 C 72.507812 12.773438 72.296875 11.863281 72.3125 10.941406 C 72.292969 10.03125 72.503906 9.128906 72.925781 8.316406 C 73.707031 6.824219 75.257812 5.890625 76.941406 5.910156 C 77.640625 5.898438 78.335938 6.054688 78.960938 6.367188 Z M 79.921875 9.210938 C 79.667969 8.738281 79.289062 8.339844 78.828125 8.066406 C 78.382812 7.808594 77.878906 7.671875 77.367188 7.675781 C 76.304688 7.664062 75.320312 8.246094 74.8125 9.183594 C 74.523438 9.722656 74.378906 10.328125 74.394531 10.941406 C 74.382812 11.5625 74.523438 12.175781 74.8125 12.726562 C 75.066406 13.210938 75.449219 13.613281 75.917969 13.894531 C 76.355469 14.15625 76.855469 14.296875 77.367188 14.296875 C 77.878906 14.296875 78.382812 14.164062 78.828125 13.902344 C 79.292969 13.628906 79.667969 13.230469 79.921875 12.75 C 80.210938 12.207031 80.355469 11.59375 80.339844 10.976562 C 80.355469 10.359375 80.210938 9.753906 79.921875 9.210938 Z M 84.664062 8.320312 C 85.441406 6.824219 86.992188 5.894531 88.675781 5.914062 C 89.378906 5.894531 90.070312 6.050781 90.699219 6.367188 C 91.234375 6.640625 91.707031 7.027344 92.078125 7.5 L 92.078125 6.070312 L 94.125 6.070312 L 94.125 15.902344 L 92.078125 15.902344 L 92.078125 14.4375 C 91.703125 14.929688 91.222656 15.324219 90.671875 15.597656 C 89.285156 16.277344 87.652344 16.207031 86.328125 15.410156 C 85.621094 14.96875 85.042969 14.339844 84.664062 13.589844 C 84.246094 12.773438 84.035156 11.863281 84.050781 10.941406 C 84.035156 10.03125 84.242188 9.128906 84.664062 8.316406 Z M 91.660156 9.210938 C 91.40625 8.738281 91.027344 8.34375 90.5625 8.070312 C 90.121094 7.808594 89.617188 7.675781 89.105469 7.675781 C 88.039062 7.667969 87.058594 8.246094 86.550781 9.183594 C 86.261719 9.722656 86.117188 10.332031 86.132812 10.941406 C 86.117188 11.5625 86.261719 12.179688 86.550781 12.726562 C 86.804688 13.210938 87.183594 13.617188 87.652344 13.894531 C 88.09375 14.160156 88.59375 14.296875 89.105469 14.296875 C 89.617188 14.300781 90.121094 14.164062 90.5625 13.90625 C 91.027344 13.628906 91.40625 13.230469 91.660156 12.753906 C 91.949219 12.207031 92.09375 11.597656 92.078125 10.976562 C 92.09375 10.363281 91.949219 9.753906 91.660156 9.210938 Z M 91.660156 9.210938 "/>
</g>
</svg>
