<?xml version="1.0" encoding="UTF-8"?>
<svg xmlns="http://www.w3.org/2000/svg" xmlns:xlink="http://www.w3.org/1999/xlink" width="px" height="px" viewBox="0 0 39 45" version="1.1">
<g id="surface1">
<path style=" stroke:none;fill-rule:nonzero;fill:rgb(11.764706%,11.764706%,11.764706%);fill-opacity:1;" d="M 7.792969 33.695312 L 3.898438 31.449219 L 7.792969 29.199219 L 11.691406 26.953125 L 11.691406 17.96875 L 15.589844 15.722656 L 19.484375 13.476562 L 19.484375 4.492188 L 23.382812 6.738281 L 19.484375 4.492188 L 23.382812 2.246094 L 19.484375 4.492188 L 15.589844 6.738281 L 11.691406 8.984375 L 7.796875 11.230469 L 3.898438 13.476562 L 3.898438 31.445312 Z M 7.792969 33.695312 "/>
<path style=" stroke:none;fill-rule:nonzero;fill:rgb(11.764706%,11.764706%,11.764706%);fill-opacity:1;" d="M 11.691406 35.941406 L 7.792969 33.695312 L 15.589844 29.203125 L 7.792969 33.695312 Z M 11.691406 35.941406 "/>
<path style=" stroke:none;fill-rule:nonzero;fill:rgb(11.764706%,11.764706%,11.764706%);fill-opacity:1;" d="M 15.589844 38.1875 L 11.691406 35.941406 L 19.488281 31.449219 L 11.691406 35.941406 Z M 15.589844 38.1875 "/>
<path style=" stroke:none;fill-rule:nonzero;fill:rgb(11.764706%,11.764706%,11.764706%);fill-opacity:1;" d="M 19.484375 35.941406 L 27.28125 31.449219 L 31.175781 29.203125 L 31.175781 24.710938 L 31.175781 29.199219 L 27.28125 31.445312 L 19.484375 35.9375 L 15.589844 38.183594 L 19.484375 40.429688 L 15.589844 38.183594 Z M 19.484375 35.941406 "/>
<path style=" stroke:none;fill-rule:nonzero;fill:rgb(11.764706%,11.764706%,11.764706%);fill-opacity:1;" d="M 27.28125 17.96875 L 23.382812 20.214844 Z M 27.28125 17.96875 "/>
<path style=" stroke:none;fill-rule:nonzero;fill:rgb(11.764706%,11.764706%,11.764706%);fill-opacity:1;" d="M 15.589844 20.21875 L 19.484375 22.464844 Z M 15.589844 20.21875 "/>
<path style=" stroke:none;fill-rule:nonzero;fill:rgb(11.764706%,11.764706%,11.764706%);fill-opacity:1;" d="M 23.382812 11.230469 L 23.382812 6.738281 L 27.28125 8.984375 L 23.382812 6.738281 L 27.28125 4.492188 L 23.382812 6.738281 Z M 23.382812 11.230469 "/>
<path style=" stroke:none;fill-rule:nonzero;fill:rgb(11.764706%,11.764706%,11.764706%);fill-opacity:1;" d="M 27.28125 13.476562 L 27.28125 8.984375 L 31.175781 11.230469 L 27.28125 8.984375 L 31.175781 6.738281 L 27.28125 8.984375 Z M 27.28125 13.476562 "/>
<path style=" stroke:none;fill-rule:nonzero;fill:rgb(11.764706%,11.764706%,11.764706%);fill-opacity:1;" d="M 31.175781 15.722656 L 31.175781 11.230469 L 35.074219 13.476562 L 31.175781 11.230469 L 35.074219 8.984375 L 31.175781 11.230469 Z M 31.175781 15.722656 "/>
<path style=" stroke:none;fill-rule:nonzero;fill:rgb(11.764706%,11.764706%,11.764706%);fill-opacity:1;" d="M 38.972656 11.234375 L 35.074219 13.480469 L 35.074219 31.449219 L 31.175781 33.695312 L 27.28125 35.941406 L 19.484375 40.433594 L 19.484375 44.925781 L 27.28125 40.433594 L 31.175781 38.1875 L 38.972656 33.695312 Z M 38.972656 11.234375 "/>
<path style=" stroke:none;fill-rule:nonzero;fill:rgb(65.882353%,48.235294%,9.411765%);fill-opacity:1;" d="M 27.28125 22.464844 L 27.28125 17.96875 L 23.382812 20.214844 L 19.488281 22.460938 L 19.488281 31.445312 L 23.382812 29.199219 L 27.28125 26.953125 Z M 27.28125 22.464844 "/>
<path style=" stroke:none;fill-rule:nonzero;fill:rgb(82.745098%,61.176471%,12.54902%);fill-opacity:1;" d="M 19.484375 26.957031 L 19.484375 22.464844 L 15.589844 20.21875 L 11.691406 17.972656 L 11.691406 26.957031 L 15.589844 29.203125 L 19.484375 31.449219 Z M 19.484375 26.957031 "/>
<path style=" stroke:none;fill-rule:nonzero;fill:rgb(13.72549%,13.72549%,13.72549%);fill-opacity:1;" d="M 3.898438 26.957031 L 3.898438 13.480469 L 0.00390625 11.234375 L 0.00390625 33.695312 L 3.898438 35.941406 Z M 3.898438 26.957031 "/>
<path style=" stroke:none;fill-rule:nonzero;fill:rgb(13.72549%,13.72549%,13.72549%);fill-opacity:1;" d="M 11.691406 31.449219 L 15.585938 29.203125 Z M 11.691406 31.449219 "/>
<path style=" stroke:none;fill-rule:nonzero;fill:rgb(13.72549%,13.72549%,13.72549%);fill-opacity:1;" d="M 11.691406 31.445312 L 7.792969 33.691406 Z M 11.691406 31.445312 "/>
<path style=" stroke:none;fill-rule:nonzero;fill:rgb(13.72549%,13.72549%,13.72549%);fill-opacity:1;" d="M 7.792969 33.691406 L 3.898438 31.445312 L 3.898438 35.9375 L 7.796875 38.183594 L 7.796875 33.691406 Z M 7.792969 33.691406 "/>
<path style=" stroke:none;fill-rule:nonzero;fill:rgb(13.72549%,13.72549%,13.72549%);fill-opacity:1;" d="M 15.589844 33.691406 L 19.484375 31.445312 Z M 15.589844 33.691406 "/>
<path style=" stroke:none;fill-rule:nonzero;fill:rgb(13.72549%,13.72549%,13.72549%);fill-opacity:1;" d="M 15.589844 33.695312 L 11.691406 35.941406 Z M 15.589844 33.695312 "/>
<path style=" stroke:none;fill-rule:nonzero;fill:rgb(13.72549%,13.72549%,13.72549%);fill-opacity:1;" d="M 11.691406 35.941406 L 7.792969 33.695312 L 7.792969 38.1875 L 11.691406 40.433594 L 11.691406 35.9375 Z M 11.691406 35.941406 "/>
<path style=" stroke:none;fill-rule:nonzero;fill:rgb(13.72549%,13.72549%,13.72549%);fill-opacity:1;" d="M 31.175781 29.203125 L 27.28125 31.449219 Z M 31.175781 29.203125 "/>
<path style=" stroke:none;fill-rule:nonzero;fill:rgb(13.72549%,13.72549%,13.72549%);fill-opacity:1;" d="M 27.28125 31.449219 L 23.382812 33.695312 Z M 27.28125 31.449219 "/>
<path style=" stroke:none;fill-rule:nonzero;fill:rgb(13.72549%,13.72549%,13.72549%);fill-opacity:1;" d="M 23.378906 33.695312 L 19.484375 35.9375 Z M 23.378906 33.695312 "/>
<path style=" stroke:none;fill-rule:nonzero;fill:rgb(13.72549%,13.72549%,13.72549%);fill-opacity:1;" d="M 19.484375 35.941406 L 15.589844 38.1875 Z M 19.484375 35.941406 "/>
<path style=" stroke:none;fill-rule:nonzero;fill:rgb(13.72549%,13.72549%,13.72549%);fill-opacity:1;" d="M 35.074219 31.449219 L 31.175781 33.695312 Z M 35.074219 31.449219 "/>
<path style=" stroke:none;fill-rule:nonzero;fill:rgb(13.72549%,13.72549%,13.72549%);fill-opacity:1;" d="M 31.175781 33.695312 L 27.28125 35.9375 Z M 31.175781 33.695312 "/>
<path style=" stroke:none;fill-rule:nonzero;fill:rgb(13.72549%,13.72549%,13.72549%);fill-opacity:1;" d="M 27.28125 35.941406 L 23.382812 38.1875 Z M 27.28125 35.941406 "/>
<path style=" stroke:none;fill-rule:nonzero;fill:rgb(13.72549%,13.72549%,13.72549%);fill-opacity:1;" d="M 23.382812 38.1875 L 19.484375 40.433594 Z M 23.382812 38.1875 "/>
<path style=" stroke:none;fill-rule:nonzero;fill:rgb(13.72549%,13.72549%,13.72549%);fill-opacity:1;" d="M 19.484375 40.433594 L 15.589844 38.1875 L 11.691406 35.941406 L 11.691406 40.433594 L 15.589844 42.675781 L 19.488281 44.921875 L 19.488281 40.429688 Z M 19.484375 40.433594 "/>
<path style=" stroke:none;fill-rule:nonzero;fill:rgb(13.72549%,13.72549%,13.72549%);fill-opacity:1;" d="M 11.691406 26.957031 L 11.691406 17.972656 L 15.585938 20.21875 L 11.691406 17.972656 Z M 11.691406 26.957031 "/>
<path style=" stroke:none;fill-rule:nonzero;fill:rgb(13.72549%,13.72549%,13.72549%);fill-opacity:1;" d="M 27.28125 17.96875 L 27.28125 26.953125 L 31.175781 29.199219 L 31.175781 11.234375 L 27.28125 8.988281 Z M 27.28125 17.96875 "/>
<path style=" stroke:none;fill-rule:nonzero;fill:rgb(13.72549%,13.72549%,13.72549%);fill-opacity:1;" d="M 23.378906 15.722656 L 23.378906 6.738281 L 19.484375 4.492188 L 19.484375 13.476562 L 19.792969 13.65625 Z M 23.378906 15.722656 "/>
<path style=" stroke:none;fill-rule:nonzero;fill:rgb(13.72549%,13.72549%,13.72549%);fill-opacity:1;" d="M 23.382812 15.722656 L 27.28125 17.96875 L 27.28125 8.984375 L 23.382812 6.738281 Z M 23.382812 15.722656 "/>
<path style=" stroke:none;fill-rule:nonzero;fill:rgb(13.72549%,13.72549%,13.72549%);fill-opacity:1;" d="M 19.484375 4.492188 L 15.589844 6.738281 Z M 19.484375 4.492188 "/>
<path style=" stroke:none;fill-rule:nonzero;fill:rgb(13.72549%,13.72549%,13.72549%);fill-opacity:1;" d="M 15.585938 6.738281 L 11.691406 8.984375 Z M 15.585938 6.738281 "/>
<path style=" stroke:none;fill-rule:nonzero;fill:rgb(13.72549%,13.72549%,13.72549%);fill-opacity:1;" d="M 11.691406 8.984375 L 7.792969 11.230469 Z M 11.691406 8.984375 "/>
<path style=" stroke:none;fill-rule:nonzero;fill:rgb(13.72549%,13.72549%,13.72549%);fill-opacity:1;" d="M 7.796875 11.230469 L 3.898438 13.476562 Z M 7.796875 11.230469 "/>
<path style=" stroke:none;fill-rule:nonzero;fill:rgb(13.72549%,13.72549%,13.72549%);fill-opacity:1;" d="M 31.175781 11.234375 L 31.175781 29.203125 L 35.074219 31.449219 L 35.074219 13.476562 Z M 31.175781 11.234375 "/>
<path style=" stroke:none;fill-rule:nonzero;fill:rgb(13.72549%,13.72549%,13.72549%);fill-opacity:1;" d="M 23.382812 20.21875 L 19.484375 22.464844 Z M 23.382812 20.21875 "/>
<path style=" stroke:none;fill-rule:nonzero;fill:rgb(33.72549%,33.72549%,33.72549%);fill-opacity:1;" d="M 11.691406 26.957031 L 3.894531 31.449219 L 7.792969 33.695312 L 11.6875 31.449219 L 15.585938 29.203125 Z M 11.691406 26.957031 "/>
<path style=" stroke:none;fill-rule:nonzero;fill:rgb(33.72549%,33.72549%,33.72549%);fill-opacity:1;" d="M 15.589844 29.203125 L 11.691406 31.449219 L 7.796875 33.695312 L 11.691406 35.941406 L 15.589844 33.695312 L 19.484375 31.449219 Z M 15.589844 29.203125 "/>
<path style=" stroke:none;fill-rule:nonzero;fill:rgb(33.72549%,33.72549%,33.72549%);fill-opacity:1;" d="M 23.382812 33.695312 L 27.28125 31.445312 L 31.175781 29.199219 L 27.28125 26.953125 L 23.382812 29.199219 L 19.488281 31.445312 L 11.691406 35.9375 L 15.589844 38.183594 L 19.488281 35.9375 Z M 23.382812 33.695312 "/>
<path style=" stroke:none;fill-rule:nonzero;fill:rgb(33.72549%,33.72549%,33.72549%);fill-opacity:1;" d="M 31.175781 29.203125 L 27.28125 31.449219 L 23.382812 33.695312 L 19.488281 35.941406 L 15.589844 38.1875 L 19.488281 40.433594 L 23.382812 38.1875 L 31.179688 33.695312 L 35.074219 31.449219 L 31.179688 29.203125 Z M 31.175781 29.203125 "/>
<path style=" stroke:none;fill-rule:nonzero;fill:rgb(33.72549%,33.72549%,33.72549%);fill-opacity:1;" d="M 27.28125 17.96875 L 23.382812 15.726562 L 19.796875 13.660156 L 21.878906 14.859375 L 23.382812 15.726562 L 27.277344 17.972656 Z M 27.28125 17.96875 "/>
<path style=" stroke:none;fill-rule:nonzero;fill:rgb(33.72549%,33.72549%,33.72549%);fill-opacity:1;" d="M 15.585938 15.722656 L 11.691406 17.96875 L 19.484375 13.476562 Z M 15.585938 15.722656 "/>
<path style=" stroke:none;fill-rule:nonzero;fill:rgb(33.72549%,33.72549%,33.72549%);fill-opacity:1;" d="M 7.792969 11.230469 L 15.589844 6.738281 L 19.484375 4.492188 L 23.382812 2.246094 L 19.484375 0 L 15.585938 2.246094 L 11.691406 4.492188 L 7.792969 6.738281 L 3.898438 8.984375 L 0 11.230469 L 3.898438 13.476562 Z M 7.792969 11.230469 "/>
<path style=" stroke:none;fill-rule:nonzero;fill:rgb(33.72549%,33.72549%,33.72549%);fill-opacity:1;" d="M 23.378906 6.738281 L 27.28125 4.492188 L 23.382812 2.246094 L 19.488281 4.492188 Z M 23.378906 6.738281 "/>
<path style=" stroke:none;fill-rule:nonzero;fill:rgb(33.72549%,33.72549%,33.72549%);fill-opacity:1;" d="M 27.28125 8.984375 L 31.175781 6.738281 L 27.28125 4.492188 L 23.382812 6.738281 Z M 27.28125 8.984375 "/>
<path style=" stroke:none;fill-rule:nonzero;fill:rgb(33.72549%,33.72549%,33.72549%);fill-opacity:1;" d="M 31.175781 11.230469 L 35.074219 8.988281 L 31.175781 6.738281 L 27.28125 8.984375 Z M 31.175781 11.230469 "/>
<path style=" stroke:none;fill-rule:nonzero;fill:rgb(33.72549%,33.72549%,33.72549%);fill-opacity:1;" d="M 35.074219 13.480469 L 38.972656 11.234375 L 35.074219 8.988281 L 31.175781 11.234375 Z M 35.074219 13.480469 "/>
<path style=" stroke:none;fill-rule:nonzero;fill:rgb(100%,76.470588%,18.039216%);fill-opacity:1;" d="M 11.691406 17.96875 L 15.589844 20.214844 L 19.484375 22.464844 L 27.28125 17.972656 L 23.382812 15.726562 L 21.878906 14.859375 L 19.796875 13.65625 L 19.484375 13.480469 L 11.691406 17.972656 Z M 11.691406 17.96875 "/>
</g>
</svg>
