<?xml version="1.0" encoding="UTF-8"?>
<svg xmlns="http://www.w3.org/2000/svg" xmlns:xlink="http://www.w3.org/1999/xlink" width="px" height="px" viewBox="0 0 38 29" version="1.1">
<g id="surface1">
<path style=" stroke:none;fill-rule:evenodd;fill:rgb(100%,100%,100%);fill-opacity:1;" d="M 6.179688 0.785156 L 6.179688 8.769531 C 6.40625 8.753906 6.632812 8.742188 6.855469 8.742188 C 8.929688 8.742188 10.808594 9.648438 11.816406 11.546875 C 12.660156 13.089844 12.667969 14.960938 11.835938 16.511719 C 11.46875 17.152344 10.9375 17.679688 10.292969 18.03125 L 10.21875 18.070312 L 9.769531 17.886719 L 10.007812 17.691406 C 10.4375 17.34375 10.773438 16.894531 10.996094 16.386719 C 11.519531 15.121094 11.417969 13.675781 10.722656 12.496094 C 9.90625 11.144531 8.433594 10.347656 6.875 10.414062 C 6.644531 10.414062 6.414062 10.425781 6.183594 10.449219 L 6.183594 17.941406 C 6.171875 18.308594 6.367188 18.648438 6.6875 18.816406 L 6.785156 18.867188 L 6.785156 19.304688 L 3.652344 19.304688 L 3.652344 18.871094 L 3.742188 18.820312 C 4.0625 18.648438 4.261719 18.308594 4.25 17.9375 L 4.25 10.976562 C 3.4375 11.371094 2.757812 12 2.296875 12.789062 C 1.183594 14.671875 1.378906 17.144531 2.410156 19.019531 C 3.75 21.441406 6.195312 22.59375 8.871094 22.59375 C 15.484375 22.59375 18.714844 17.367188 18.714844 11.136719 C 18.714844 5.199219 15.011719 0.839844 9.050781 0.785156 Z M 16.226562 17.652344 L 21.015625 17.652344 C 24.03125 17.652344 26.128906 15.523438 26.128906 12.464844 C 26.175781 11.070312 25.648438 9.722656 24.679688 8.734375 C 23.710938 7.75 22.382812 7.214844 21.015625 7.261719 L 16.226562 7.261719 Z M 22.601562 18.417969 C 23.285156 19.054688 23.875 19.792969 24.347656 20.605469 C 25.113281 21.808594 25.804688 23.050781 26.625 24.21875 C 28.140625 26.375 29.984375 28.109375 32.742188 28.109375 C 34.484375 28.160156 36.183594 27.535156 37.492188 26.359375 L 37.601562 26.269531 L 37.96875 26.570312 L 37.808594 26.710938 C 36.089844 28.238281 34.582031 28.988281 32.289062 28.988281 C 22.84375 28.988281 21.984375 18.421875 20.742188 18.421875 L 16.226562 18.421875 L 16.226562 24.417969 C 16.214844 24.789062 16.414062 25.136719 16.734375 25.3125 L 16.824219 25.363281 L 16.824219 25.796875 L 13.695312 25.796875 L 13.695312 25.359375 L 13.792969 25.308594 C 14.117188 25.136719 14.3125 24.785156 14.296875 24.414062 L 14.296875 7.855469 C 14.3125 7.492188 14.117188 7.152344 13.800781 6.984375 L 13.699219 6.933594 L 13.699219 6.492188 L 22.5 6.492188 C 24.601562 6.464844 26.550781 7.582031 27.617188 9.421875 C 28.6875 11.261719 28.703125 13.539062 27.667969 15.398438 C 26.632812 17.253906 24.699219 18.40625 22.601562 18.417969 Z M 4.246094 9.183594 L 4.246094 1.378906 C 4.246094 0.945312 3.125 0.65625 2.835938 0.488281 L 2.746094 0.433594 L 2.746094 0 L 9.050781 0 C 15.980469 0.0703125 20.863281 3.785156 20.863281 11.140625 C 20.863281 18.195312 16.019531 23.382812 9.015625 23.382812 C 5.882812 23.382812 2.746094 22.304688 1.050781 19.464844 C -0.246094 17.277344 -0.347656 14.566406 0.789062 12.285156 C 1.515625 10.84375 2.753906 9.738281 4.25 9.1875 Z M 4.246094 9.183594 "/>
</g>
</svg>
