<?xml version="1.0" encoding="UTF-8"?>
<svg xmlns="http://www.w3.org/2000/svg" xmlns:xlink="http://www.w3.org/1999/xlink" width="px" height="px" viewBox="0 0 38 44" version="1.1">
<g id="surface1">
<path style=" stroke:none;fill-rule:nonzero;fill:rgb(11.764706%,11.764706%,11.764706%);fill-opacity:1;" d="M 11.402344 30.71875 L 15.203125 28.523438 Z M 11.402344 30.71875 "/>
<path style=" stroke:none;fill-rule:nonzero;fill:rgb(65.882353%,48.235294%,9.411765%);fill-opacity:1;" d="M 11.402344 30.71875 L 15.203125 28.523438 L 15.203125 19.746094 L 7.601562 24.136719 L 7.601562 37.300781 L 11.402344 35.105469 Z M 11.402344 30.71875 "/>
<path style=" stroke:none;fill-rule:nonzero;fill:rgb(11.764706%,11.764706%,11.764706%);fill-opacity:1;" d="M 19.003906 30.71875 L 22.800781 28.523438 L 19.003906 30.71875 L 15.203125 32.910156 L 15.203125 37.300781 L 15.203125 32.910156 L 19.003906 35.105469 L 15.203125 32.910156 Z M 19.003906 30.71875 "/>
<path style=" stroke:none;fill-rule:nonzero;fill:rgb(11.764706%,11.764706%,11.764706%);fill-opacity:1;" d="M 14.570312 19.652344 L 15.832031 15.449219 Z M 14.570312 19.652344 "/>
<path style=" stroke:none;fill-rule:nonzero;fill:rgb(11.764706%,11.764706%,11.764706%);fill-opacity:1;" d="M 11.402344 21.941406 L 15.203125 19.746094 Z M 11.402344 21.941406 "/>
<path style=" stroke:none;fill-rule:nonzero;fill:rgb(11.764706%,11.764706%,11.764706%);fill-opacity:1;" d="M 7.601562 19.746094 L 11.402344 17.554688 L 7.601562 19.746094 L 3.800781 21.941406 L 3.800781 26.328125 L 3.800781 21.941406 L 7.601562 24.136719 L 3.800781 21.941406 Z M 7.601562 19.746094 "/>
<path style=" stroke:none;fill-rule:nonzero;fill:rgb(11.764706%,11.764706%,11.764706%);fill-opacity:1;" d="M 26.605469 30.71875 L 22.804688 32.914062 L 19.003906 35.105469 L 19.003906 43.882812 L 22.804688 41.6875 L 26.605469 39.496094 Z M 26.605469 30.71875 "/>
<path style=" stroke:none;fill-rule:nonzero;fill:rgb(11.764706%,11.764706%,11.764706%);fill-opacity:1;" d="M 22.804688 15.359375 L 26.601562 13.164062 Z M 22.804688 15.359375 "/>
<path style=" stroke:none;fill-rule:nonzero;fill:rgb(11.764706%,11.764706%,11.764706%);fill-opacity:1;" d="M 30.402344 15.359375 L 26.601562 17.550781 L 26.601562 21.941406 L 26.601562 17.550781 L 30.402344 19.746094 L 26.601562 17.550781 L 30.402344 15.359375 L 34.203125 13.164062 Z M 30.402344 15.359375 "/>
<path style=" stroke:none;fill-rule:nonzero;fill:rgb(11.764706%,11.764706%,11.764706%);fill-opacity:1;" d="M 38.003906 15.359375 L 34.203125 17.554688 L 30.402344 19.746094 L 30.402344 37.300781 L 34.203125 35.109375 L 38.003906 32.914062 Z M 38.003906 15.359375 "/>
<path style=" stroke:none;fill-rule:nonzero;fill:rgb(11.764706%,11.764706%,11.764706%);fill-opacity:1;" d="M 19.003906 4.386719 L 15.203125 6.582031 L 15.203125 10.96875 L 15.203125 6.585938 L 19.003906 8.777344 L 15.203125 6.585938 L 19.003906 4.390625 L 22.800781 2.195312 L 19.003906 4.390625 Z M 19.003906 4.386719 "/>
<path style=" stroke:none;fill-rule:nonzero;fill:rgb(65.882353%,48.235294%,9.411765%);fill-opacity:1;" d="M 22.804688 6.582031 L 19.003906 8.777344 L 19.003906 26.328125 L 22.804688 28.523438 L 22.804688 15.359375 L 26.605469 13.164062 L 26.605469 4.386719 Z M 22.804688 6.582031 "/>
<path style=" stroke:none;fill-rule:nonzero;fill:rgb(82.745098%,61.176471%,12.54902%);fill-opacity:1;" d="M 30.40625 28.527344 L 30.40625 19.75 L 26.605469 17.554688 L 26.605469 35.109375 L 30.40625 37.304688 Z M 30.40625 28.527344 "/>
<path style=" stroke:none;fill-rule:nonzero;fill:rgb(13.72549%,13.72549%,13.72549%);fill-opacity:1;" d="M 3.800781 30.71875 L 3.800781 21.941406 L 0 19.746094 L 0 32.910156 L 3.800781 35.105469 Z M 3.800781 30.71875 "/>
<path style=" stroke:none;fill-rule:nonzero;fill:rgb(13.72549%,13.72549%,13.72549%);fill-opacity:1;" d="M 7.601562 28.523438 L 7.601562 24.136719 L 3.800781 21.941406 L 3.800781 35.105469 L 7.601562 37.300781 Z M 7.601562 28.523438 "/>
<path style=" stroke:none;fill-rule:nonzero;fill:rgb(13.72549%,13.72549%,13.72549%);fill-opacity:1;" d="M 22.804688 28.523438 L 22.804688 15.359375 L 26.601562 17.554688 L 22.804688 15.359375 L 22.804688 28.527344 Z M 22.804688 28.523438 "/>
<path style=" stroke:none;fill-rule:nonzero;fill:rgb(13.72549%,13.72549%,13.72549%);fill-opacity:1;" d="M 15.203125 37.300781 L 15.203125 32.910156 L 11.402344 30.71875 L 11.402344 39.496094 L 15.203125 41.6875 Z M 15.203125 37.300781 "/>
<path style=" stroke:none;fill-rule:nonzero;fill:rgb(13.72549%,13.72549%,13.72549%);fill-opacity:1;" d="M 19.003906 35.105469 L 15.203125 32.914062 L 15.203125 41.6875 L 19.003906 43.882812 Z M 19.003906 35.105469 "/>
<path style=" stroke:none;fill-rule:nonzero;fill:rgb(13.72549%,13.72549%,13.72549%);fill-opacity:1;" d="M 19.003906 30.71875 L 15.203125 32.914062 Z M 19.003906 30.71875 "/>
<path style=" stroke:none;fill-rule:nonzero;fill:rgb(13.72549%,13.72549%,13.72549%);fill-opacity:1;" d="M 22.804688 32.914062 L 19.003906 35.105469 Z M 22.804688 32.914062 "/>
<path style=" stroke:none;fill-rule:nonzero;fill:rgb(13.72549%,13.72549%,13.72549%);fill-opacity:1;" d="M 7.601562 19.746094 L 3.800781 21.941406 Z M 7.601562 19.746094 "/>
<path style=" stroke:none;fill-rule:nonzero;fill:rgb(13.72549%,13.72549%,13.72549%);fill-opacity:1;" d="M 11.402344 21.941406 L 7.601562 24.136719 Z M 11.402344 21.941406 "/>
<path style=" stroke:none;fill-rule:nonzero;fill:rgb(13.72549%,13.72549%,13.72549%);fill-opacity:1;" d="M 30.402344 15.359375 L 26.601562 17.554688 Z M 30.402344 15.359375 "/>
<path style=" stroke:none;fill-rule:nonzero;fill:rgb(13.72549%,13.72549%,13.72549%);fill-opacity:1;" d="M 34.203125 17.554688 L 30.402344 19.746094 Z M 34.203125 17.554688 "/>
<path style=" stroke:none;fill-rule:nonzero;fill:rgb(13.72549%,13.72549%,13.72549%);fill-opacity:1;" d="M 19.003906 4.386719 L 15.203125 6.582031 Z M 19.003906 4.386719 "/>
<path style=" stroke:none;fill-rule:nonzero;fill:rgb(13.72549%,13.72549%,13.72549%);fill-opacity:1;" d="M 22.804688 6.582031 L 19.003906 8.777344 Z M 22.804688 6.582031 "/>
<path style=" stroke:none;fill-rule:nonzero;fill:rgb(33.72549%,33.72549%,33.72549%);fill-opacity:1;" d="M 26.601562 30.71875 L 22.800781 28.523438 L 19.003906 26.328125 L 11.402344 30.71875 L 15.203125 32.910156 L 19.003906 30.71875 L 22.800781 28.523438 L 19.003906 30.71875 L 15.203125 32.910156 L 19.003906 35.105469 L 22.800781 32.910156 Z M 26.601562 30.71875 "/>
<path style=" stroke:none;fill-rule:nonzero;fill:rgb(33.72549%,33.72549%,33.72549%);fill-opacity:1;" d="M 7.601562 19.746094 L 11.402344 17.550781 L 7.601562 15.359375 L 3.800781 17.554688 L 0.00390625 19.746094 L 3.804688 21.941406 Z M 7.601562 19.746094 "/>
<path style=" stroke:none;fill-rule:nonzero;fill:rgb(33.72549%,33.72549%,33.72549%);fill-opacity:1;" d="M 15.203125 19.746094 L 11.402344 17.554688 L 7.605469 19.746094 L 3.804688 21.941406 L 7.605469 24.136719 L 11.402344 21.941406 Z M 15.203125 19.746094 "/>
<path style=" stroke:none;fill-rule:nonzero;fill:rgb(33.72549%,33.72549%,33.72549%);fill-opacity:1;" d="M 22.800781 15.359375 L 26.601562 17.554688 L 34.203125 13.164062 L 30.402344 10.972656 L 26.601562 13.164062 Z M 22.800781 15.359375 "/>
<path style=" stroke:none;fill-rule:nonzero;fill:rgb(33.72549%,33.72549%,33.72549%);fill-opacity:1;" d="M 26.601562 17.554688 L 30.402344 19.746094 L 34.203125 17.554688 L 38.003906 15.359375 L 34.203125 13.164062 Z M 26.601562 17.554688 "/>
<path style=" stroke:none;fill-rule:nonzero;fill:rgb(33.72549%,33.72549%,33.72549%);fill-opacity:1;" d="M 19.003906 4.386719 L 22.800781 2.195312 L 19.003906 0 L 15.203125 2.195312 L 11.402344 4.386719 L 15.203125 6.582031 Z M 19.003906 4.386719 "/>
<path style=" stroke:none;fill-rule:nonzero;fill:rgb(33.72549%,33.72549%,33.72549%);fill-opacity:1;" d="M 15.203125 6.582031 L 19.003906 8.777344 L 22.800781 6.582031 L 26.601562 4.386719 L 22.800781 2.195312 L 19.003906 4.386719 Z M 15.203125 6.582031 "/>
<path style=" stroke:none;fill-rule:nonzero;fill:rgb(82.745098%,61.176471%,12.54902%);fill-opacity:1;" d="M 26.601562 17.554688 L 22.800781 15.359375 L 22.800781 28.523438 L 26.601562 30.71875 Z M 26.601562 17.554688 "/>
<path style=" stroke:none;fill-rule:nonzero;fill:rgb(82.745098%,61.176471%,12.54902%);fill-opacity:1;" d="M 19.003906 26.328125 L 19.003906 8.777344 L 15.203125 6.582031 L 15.203125 28.523438 L 19.003906 26.332031 Z M 19.003906 26.328125 "/>
<path style=" stroke:none;fill-rule:nonzero;fill:rgb(82.745098%,61.176471%,12.54902%);fill-opacity:1;" d="M 11.402344 17.550781 L 15.203125 19.746094 L 15.203125 6.578125 L 11.402344 4.386719 Z M 11.402344 17.550781 "/>
</g>
</svg>
