<?xml version="1.0" encoding="UTF-8"?>
<svg xmlns="http://www.w3.org/2000/svg" xmlns:xlink="http://www.w3.org/1999/xlink" width="px" height="px" viewBox="0 0 95 24" version="1.1">
<g id="surface1">
<path style=" stroke:none;fill-rule:nonzero;fill:rgb(100%,100%,100%);fill-opacity:1;" d="M 38.546875 8.027344 C 36.363281 8.027344 35.152344 9.808594 35.152344 11.902344 C 35.152344 13.996094 36.363281 15.777344 38.546875 15.777344 C 40.683594 15.777344 42.089844 13.996094 42.089844 11.902344 C 42.089844 9.808594 40.683594 8.027344 38.546875 8.027344 Z M 34.957031 16.351562 L 34.957031 23.46875 C 34.957031 23.832031 34.664062 24.125 34.300781 24.125 L 32.773438 24.125 C 32.410156 24.125 32.117188 23.832031 32.117188 23.46875 L 32.117188 6.464844 C 32.117188 6.101562 32.410156 5.804688 32.773438 5.804688 L 34.300781 5.804688 C 34.664062 5.804688 34.957031 6.101562 34.957031 6.464844 L 34.957031 7.453125 C 35.808594 6.21875 37.210938 5.484375 38.707031 5.488281 C 42.402344 5.488281 44.929688 8.449219 44.929688 11.902344 C 44.929688 15.355469 42.402344 18.316406 38.707031 18.316406 C 37.210938 18.316406 35.808594 17.582031 34.957031 16.351562 Z M 51.753906 15.777344 C 52.765625 15.773438 53.730469 15.363281 54.4375 14.632812 C 55.140625 13.902344 55.523438 12.917969 55.496094 11.902344 C 55.523438 10.886719 55.140625 9.902344 54.4375 9.171875 C 53.730469 8.441406 52.765625 8.03125 51.753906 8.027344 C 49.617188 8.027344 48.210938 9.808594 48.210938 11.902344 C 48.210938 13.996094 49.617188 15.777344 51.753906 15.777344 Z M 55.765625 7.453125 L 55.765625 6.460938 C 55.765625 6.097656 56.058594 5.804688 56.421875 5.804688 L 57.949219 5.804688 C 58.3125 5.804688 58.605469 6.097656 58.605469 6.460938 L 58.605469 17.339844 C 58.605469 17.703125 58.3125 18 57.949219 18 L 56.417969 18 C 56.058594 18 55.765625 17.703125 55.765625 17.339844 L 55.765625 16.351562 C 54.910156 17.582031 53.507812 18.316406 52.015625 18.3125 C 48.316406 18.3125 45.792969 15.355469 45.792969 11.902344 C 45.792969 8.445312 48.316406 5.488281 52.015625 5.488281 C 53.511719 5.484375 54.910156 6.21875 55.765625 7.453125 Z M 59.664062 7.527344 L 59.664062 6.460938 C 59.664062 6.097656 59.957031 5.804688 60.316406 5.804688 L 61.722656 5.804688 L 61.722656 2.769531 C 61.722656 2.40625 62.015625 2.113281 62.375 2.113281 L 63.902344 2.113281 C 64.078125 2.113281 64.246094 2.179688 64.367188 2.304688 C 64.492188 2.425781 64.558594 2.59375 64.558594 2.769531 L 64.558594 5.804688 L 66.691406 5.804688 C 67.054688 5.804688 67.347656 6.097656 67.347656 6.460938 L 67.347656 7.527344 C 67.347656 7.890625 67.054688 8.183594 66.691406 8.183594 L 64.558594 8.183594 L 64.558594 13.210938 C 64.558594 15.332031 65.210938 15.59375 66.328125 15.59375 L 67.109375 15.59375 C 67.46875 15.59375 67.761719 15.886719 67.761719 16.25 L 67.761719 17.5 C 67.761719 17.863281 67.46875 18.15625 67.109375 18.15625 L 65.652344 18.15625 C 64.273438 18.15625 61.722656 17.972656 61.722656 13.863281 L 61.722656 8.183594 L 60.316406 8.183594 C 59.957031 8.183594 59.664062 7.890625 59.664062 7.527344 Z M 76.683594 6.40625 L 76.683594 7.730469 C 76.683594 8.09375 76.390625 8.390625 76.027344 8.390625 C 76.007812 8.390625 75.984375 8.386719 75.964844 8.386719 C 75.816406 8.371094 75.683594 8.363281 75.5625 8.363281 C 73.140625 8.363281 71.8125 9.75 71.8125 12.789062 L 71.8125 17.390625 C 71.8125 17.753906 71.519531 18.050781 71.15625 18.050781 L 69.628906 18.050781 C 69.269531 18.050781 68.976562 17.753906 68.976562 17.390625 L 68.976562 6.515625 C 68.976562 6.152344 69.269531 5.855469 69.628906 5.855469 L 71.160156 5.855469 C 71.519531 5.855469 71.8125 6.152344 71.8125 6.515625 L 71.8125 7.820312 C 72.359375 6.695312 73.949219 5.699219 75.5625 5.699219 C 75.757812 5.703125 75.953125 5.722656 76.144531 5.757812 C 76.457031 5.816406 76.683594 6.089844 76.683594 6.40625 Z M 77.871094 17.339844 L 77.871094 6.460938 C 77.871094 6.097656 78.164062 5.804688 78.523438 5.804688 L 80.054688 5.804688 C 80.414062 5.804688 80.707031 6.097656 80.707031 6.460938 L 80.707031 17.339844 C 80.707031 17.707031 80.414062 18 80.054688 18 L 78.53125 18 C 78.355469 18 78.1875 17.929688 78.066406 17.808594 C 77.941406 17.683594 77.875 17.515625 77.875 17.339844 Z M 77.191406 2.121094 C 76.363281 2.121094 75.691406 2.796875 75.691406 3.628906 C 75.691406 4.464844 76.363281 5.136719 77.195312 5.136719 C 78.023438 5.136719 78.695312 4.464844 78.695312 3.628906 C 78.695312 2.796875 78.023438 2.121094 77.195312 2.121094 Z M 88.535156 15.777344 C 90.71875 15.777344 92.125 13.996094 92.125 11.902344 C 92.125 9.808594 90.71875 8.027344 88.535156 8.027344 C 86.398438 8.027344 84.992188 9.808594 84.992188 11.902344 C 84.992188 13.996094 86.402344 15.777344 88.539062 15.777344 Z M 88.535156 18.316406 C 86.828125 18.355469 85.179688 17.695312 83.976562 16.484375 C 82.769531 15.269531 82.113281 13.617188 82.152344 11.902344 C 82.132812 9.589844 83.351562 7.441406 85.339844 6.277344 C 87.332031 5.117188 89.789062 5.117188 91.777344 6.277344 C 93.769531 7.441406 94.984375 9.589844 94.964844 11.902344 C 95.003906 13.621094 94.335938 15.285156 93.121094 16.496094 C 91.90625 17.707031 90.25 18.367188 88.539062 18.3125 Z M 88.535156 18.316406 "/>
<path style=" stroke:none;fill-rule:nonzero;fill:rgb(100%,100%,100%);fill-opacity:1;" d="M 13.820312 2.507812 L 29.730469 2.507812 C 30.265625 2.507812 30.699219 2.941406 30.699219 3.480469 L 30.699219 20.425781 C 30.699219 20.960938 30.265625 21.398438 29.730469 21.398438 L 13.820312 21.398438 C 13.285156 21.398438 12.851562 20.960938 12.851562 20.425781 L 12.851562 3.480469 C 12.851562 2.941406 13.285156 2.507812 13.820312 2.507812 Z M 16.605469 5.640625 C 16.496094 5.640625 16.390625 5.703125 16.335938 5.800781 C 16.28125 5.898438 16.28125 6.019531 16.339844 6.117188 L 19.835938 11.960938 L 16.339844 17.464844 C 16.277344 17.5625 16.273438 17.6875 16.328125 17.785156 C 16.382812 17.886719 16.488281 17.949219 16.601562 17.949219 L 19.742188 17.949219 C 20.734375 16.050781 21.585938 14.457031 21.894531 13.816406 L 21.917969 13.816406 C 22.296875 14.53125 22.980469 15.855469 24.070312 17.949219 L 27.335938 17.949219 C 27.449219 17.949219 27.554688 17.890625 27.609375 17.789062 C 27.664062 17.6875 27.664062 17.566406 27.605469 17.46875 L 23.945312 11.511719 L 27.527344 6.214844 C 27.605469 6.101562 27.613281 5.953125 27.550781 5.832031 C 27.484375 5.710938 27.359375 5.636719 27.222656 5.636719 L 24.164062 5.636719 C 23.171875 7.398438 22.414062 8.753906 21.988281 9.511719 L 21.964844 9.511719 C 21.609375 8.871094 21.089844 7.96875 19.8125 5.636719 Z M 16.605469 5.640625 "/>
<path style=" stroke:none;fill-rule:nonzero;fill:rgb(100%,100%,100%);fill-opacity:1;" d="M 9.0625 14.402344 L 11.046875 14.402344 C 11.164062 14.402344 11.273438 14.460938 11.34375 14.554688 C 11.414062 14.648438 11.433594 14.769531 11.398438 14.878906 C 10.820312 16.773438 8.933594 18.375 6.070312 18.375 C 1.980469 18.378906 0 15.292969 0 11.972656 C 0 8.3125 2.164062 5.566406 5.996094 5.566406 C 7.472656 5.523438 8.902344 6.082031 9.960938 7.117188 C 11.023438 8.152344 11.621094 9.570312 11.621094 11.054688 C 11.628906 11.496094 11.605469 11.9375 11.558594 12.375 C 11.527344 12.636719 11.304688 12.832031 11.042969 12.832031 L 2.894531 12.832031 C 2.917969 14.585938 3.777344 16 6.074219 16 C 7.4375 16 8.078125 15.476562 8.460938 14.796875 C 8.46875 14.78125 8.476562 14.769531 8.484375 14.75 C 8.601562 14.539062 8.820312 14.40625 9.0625 14.402344 Z M 5.914062 7.945312 C 4.375 7.945312 3.125 8.769531 2.941406 10.417969 C 2.929688 10.527344 2.964844 10.636719 3.039062 10.71875 C 3.109375 10.800781 3.214844 10.847656 3.324219 10.847656 L 8.449219 10.847656 C 8.5625 10.847656 8.664062 10.800781 8.738281 10.714844 C 8.8125 10.632812 8.847656 10.523438 8.832031 10.414062 C 8.65625 8.847656 7.496094 7.945312 5.914062 7.945312 Z M 5.914062 7.945312 "/>
</g>
</svg>
