<?xml version="1.0" encoding="UTF-8"?>
<svg xmlns="http://www.w3.org/2000/svg" xmlns:xlink="http://www.w3.org/1999/xlink" width="px" height="px" viewBox="0 0 39 45" version="1.1">
<g id="surface1">
<path style=" stroke:none;fill-rule:nonzero;fill:rgb(11.764706%,11.764706%,11.764706%);fill-opacity:1;" d="M 3.898438 26.957031 L 3.898438 31.449219 L 3.898438 26.957031 L 7.792969 29.203125 Z M 3.898438 26.957031 "/>
<path style=" stroke:none;fill-rule:nonzero;fill:rgb(11.764706%,11.764706%,11.764706%);fill-opacity:1;" d="M 11.691406 31.445312 L 15.589844 29.199219 Z M 11.691406 31.445312 "/>
<path style=" stroke:none;fill-rule:nonzero;fill:rgb(65.882353%,48.235294%,9.411765%);fill-opacity:1;" d="M 11.691406 31.449219 L 15.589844 29.203125 L 11.691406 26.957031 L 8.5 28.792969 L 7.792969 29.199219 L 7.792969 38.183594 L 11.691406 35.9375 L 11.691406 31.445312 Z M 11.691406 31.449219 "/>
<path style=" stroke:none;fill-rule:nonzero;fill:rgb(11.764706%,11.764706%,11.764706%);fill-opacity:1;" d="M 15.589844 33.695312 L 15.589844 38.1875 L 15.589844 33.695312 L 19.488281 35.941406 Z M 15.589844 33.695312 "/>
<path style=" stroke:none;fill-rule:nonzero;fill:rgb(11.764706%,11.764706%,11.764706%);fill-opacity:1;" d="M 27.28125 17.972656 L 19.484375 22.464844 L 19.484375 31.449219 L 27.28125 26.957031 L 27.28125 31.449219 L 27.28125 26.957031 L 31.175781 29.203125 L 27.28125 26.957031 Z M 27.28125 17.972656 "/>
<path style=" stroke:none;fill-rule:nonzero;fill:rgb(11.764706%,11.764706%,11.764706%);fill-opacity:1;" d="M 35.074219 26.957031 L 31.179688 29.203125 L 31.179688 38.1875 L 35.078125 35.941406 L 38.972656 33.695312 L 38.972656 24.710938 L 35.078125 26.957031 Z M 35.074219 26.957031 "/>
<path style=" stroke:none;fill-rule:nonzero;fill:rgb(11.764706%,11.764706%,11.764706%);fill-opacity:1;" d="M 27.28125 31.449219 L 19.484375 35.941406 L 19.484375 44.925781 L 27.28125 40.433594 Z M 27.28125 31.449219 "/>
<path style=" stroke:none;fill-rule:nonzero;fill:rgb(11.764706%,11.764706%,11.764706%);fill-opacity:1;" d="M 15.589844 11.230469 L 11.691406 13.476562 Z M 15.589844 11.230469 "/>
<path style=" stroke:none;fill-rule:nonzero;fill:rgb(11.764706%,11.764706%,11.764706%);fill-opacity:1;" d="M 7.796875 11.230469 L 11.691406 8.984375 L 7.796875 11.230469 L 3.898438 13.476562 L 3.898438 17.972656 L 3.898438 13.476562 L 7.792969 15.722656 L 3.898438 13.476562 Z M 7.796875 11.230469 "/>
<path style=" stroke:none;fill-rule:nonzero;fill:rgb(11.764706%,11.764706%,11.764706%);fill-opacity:1;" d="M 23.382812 11.230469 L 27.28125 8.984375 Z M 23.382812 11.230469 "/>
<path style=" stroke:none;fill-rule:nonzero;fill:rgb(11.764706%,11.764706%,11.764706%);fill-opacity:1;" d="M 11.691406 17.96875 L 15.589844 15.722656 Z M 11.691406 17.96875 "/>
<path style=" stroke:none;fill-rule:nonzero;fill:rgb(65.882353%,48.235294%,9.411765%);fill-opacity:1;" d="M 11.691406 17.96875 L 15.589844 15.726562 L 15.589844 11.230469 L 7.792969 15.722656 L 7.792969 24.710938 L 11.691406 22.464844 Z M 11.691406 17.96875 "/>
<path style=" stroke:none;fill-rule:nonzero;fill:rgb(11.764706%,11.764706%,11.764706%);fill-opacity:1;" d="M 19.488281 17.96875 L 23.382812 15.722656 L 19.488281 17.96875 L 15.589844 20.214844 L 15.589844 24.707031 L 15.589844 20.214844 L 19.488281 22.460938 L 15.589844 20.214844 Z M 19.488281 17.96875 "/>
<path style=" stroke:none;fill-rule:nonzero;fill:rgb(11.764706%,11.764706%,11.764706%);fill-opacity:1;" d="M 19.484375 4.492188 L 15.589844 6.738281 L 15.589844 11.230469 L 15.589844 6.738281 L 19.484375 8.984375 L 15.589844 6.738281 L 19.484375 4.492188 L 23.382812 2.246094 Z M 19.484375 4.492188 "/>
<path style=" stroke:none;fill-rule:nonzero;fill:rgb(65.882353%,48.235294%,9.411765%);fill-opacity:1;" d="M 23.382812 6.738281 L 19.488281 8.984375 L 19.488281 13.476562 L 23.382812 15.722656 L 23.382812 11.230469 L 27.28125 8.984375 L 27.28125 4.496094 L 23.382812 6.742188 Z M 23.382812 6.738281 "/>
<path style=" stroke:none;fill-rule:nonzero;fill:rgb(11.764706%,11.764706%,11.764706%);fill-opacity:1;" d="M 31.179688 11.230469 L 27.28125 13.476562 L 27.28125 17.972656 L 27.28125 13.480469 L 31.179688 15.726562 L 27.28125 13.480469 L 35.078125 8.988281 Z M 31.179688 11.230469 "/>
<path style=" stroke:none;fill-rule:nonzero;fill:rgb(11.764706%,11.764706%,11.764706%);fill-opacity:1;" d="M 38.972656 11.230469 L 35.074219 13.476562 L 31.179688 15.722656 L 31.179688 24.707031 L 35.078125 22.460938 L 38.972656 20.214844 Z M 38.972656 11.230469 "/>
<path style=" stroke:none;fill-rule:nonzero;fill:rgb(82.745098%,61.176471%,12.54902%);fill-opacity:1;" d="M 31.179688 29.203125 L 27.28125 26.957031 L 27.28125 35.941406 L 31.179688 38.1875 Z M 31.179688 29.203125 "/>
<path style=" stroke:none;fill-rule:nonzero;fill:rgb(82.745098%,61.176471%,12.54902%);fill-opacity:1;" d="M 27.28125 26.953125 L 23.382812 29.199219 L 27.28125 31.445312 Z M 27.28125 26.953125 "/>
<path style=" stroke:none;fill-rule:nonzero;fill:rgb(82.745098%,61.176471%,12.54902%);fill-opacity:1;" d="M 15.589844 11.230469 L 15.589844 15.722656 L 19.488281 13.476562 L 19.488281 8.984375 L 15.589844 6.738281 Z M 15.589844 11.230469 "/>
<path style=" stroke:none;fill-rule:nonzero;fill:rgb(82.745098%,61.176471%,12.54902%);fill-opacity:1;" d="M 11.691406 8.984375 L 15.589844 11.230469 L 15.589844 6.738281 L 11.691406 4.492188 Z M 11.691406 8.984375 "/>
<path style=" stroke:none;fill-rule:nonzero;fill:rgb(100%,76.470588%,18.039216%);fill-opacity:1;" d="M 31.179688 24.710938 L 27.28125 22.464844 L 27.28125 26.953125 L 31.179688 29.199219 L 35.074219 26.953125 L 38.972656 24.707031 L 35.074219 22.460938 Z M 31.179688 24.710938 "/>
<path style=" stroke:none;fill-rule:nonzero;fill:rgb(13.72549%,13.72549%,13.72549%);fill-opacity:1;" d="M 3.898438 31.445312 L 3.898438 26.953125 L 3.617188 26.792969 L 0 24.707031 L 0 33.695312 L 3.898438 35.9375 Z M 3.898438 31.445312 "/>
<path style=" stroke:none;fill-rule:nonzero;fill:rgb(13.72549%,13.72549%,13.72549%);fill-opacity:1;" d="M 7.796875 29.199219 L 3.898438 26.953125 L 3.898438 35.9375 L 7.796875 38.183594 Z M 7.796875 29.199219 "/>
<path style=" stroke:none;fill-rule:nonzero;fill:rgb(13.72549%,13.72549%,13.72549%);fill-opacity:1;" d="M 15.589844 38.1875 L 15.589844 33.695312 L 11.691406 31.449219 L 11.691406 40.433594 L 15.589844 42.679688 Z M 15.589844 38.1875 "/>
<path style=" stroke:none;fill-rule:nonzero;fill:rgb(13.72549%,13.72549%,13.72549%);fill-opacity:1;" d="M 19.488281 35.9375 L 15.589844 33.695312 L 15.589844 42.675781 L 19.488281 44.921875 Z M 19.488281 35.9375 "/>
<path style=" stroke:none;fill-rule:nonzero;fill:rgb(13.72549%,13.72549%,13.72549%);fill-opacity:1;" d="M 15.589844 29.203125 L 19.484375 31.449219 L 19.484375 22.464844 L 15.589844 20.21875 L 15.589844 24.710938 L 15.589844 20.21875 L 11.691406 17.972656 L 11.691406 26.957031 Z M 15.589844 29.203125 "/>
<path style=" stroke:none;fill-rule:nonzero;fill:rgb(13.72549%,13.72549%,13.72549%);fill-opacity:1;" d="M 7.796875 29.199219 L 8.503906 28.792969 L 8.402344 28.851562 Z M 7.796875 29.199219 "/>
<path style=" stroke:none;fill-rule:nonzero;fill:rgb(13.72549%,13.72549%,13.72549%);fill-opacity:1;" d="M 35.074219 26.953125 L 31.179688 29.199219 Z M 35.074219 26.953125 "/>
<path style=" stroke:none;fill-rule:nonzero;fill:rgb(13.72549%,13.72549%,13.72549%);fill-opacity:1;" d="M 19.488281 35.9375 L 23.382812 33.695312 L 21.511719 34.773438 Z M 19.488281 35.9375 "/>
<path style=" stroke:none;fill-rule:nonzero;fill:rgb(13.72549%,13.72549%,13.72549%);fill-opacity:1;" d="M 3.898438 22.464844 L 7.792969 24.710938 L 7.792969 15.726562 L 3.898438 13.480469 L 3.898438 17.972656 L 3.898438 13.480469 L 0 11.234375 L 0 20.21875 Z M 3.898438 22.464844 "/>
<path style=" stroke:none;fill-rule:nonzero;fill:rgb(13.72549%,13.72549%,13.72549%);fill-opacity:1;" d="M 23.382812 15.722656 L 23.382812 11.230469 L 27.28125 13.476562 L 23.382812 11.230469 Z M 23.382812 15.722656 "/>
<path style=" stroke:none;fill-rule:nonzero;fill:rgb(13.72549%,13.72549%,13.72549%);fill-opacity:1;" d="M 19.484375 4.492188 L 15.589844 6.738281 Z M 19.484375 4.492188 "/>
<path style=" stroke:none;fill-rule:nonzero;fill:rgb(13.72549%,13.72549%,13.72549%);fill-opacity:1;" d="M 7.792969 11.230469 L 3.894531 13.476562 Z M 7.792969 11.230469 "/>
<path style=" stroke:none;fill-rule:nonzero;fill:rgb(13.72549%,13.72549%,13.72549%);fill-opacity:1;" d="M 23.382812 6.738281 L 19.488281 8.984375 Z M 23.382812 6.738281 "/>
<path style=" stroke:none;fill-rule:nonzero;fill:rgb(13.72549%,13.72549%,13.72549%);fill-opacity:1;" d="M 11.691406 13.476562 L 7.792969 15.722656 Z M 11.691406 13.476562 "/>
<path style=" stroke:none;fill-rule:nonzero;fill:rgb(13.72549%,13.72549%,13.72549%);fill-opacity:1;" d="M 31.179688 11.230469 L 27.28125 13.476562 Z M 31.179688 11.230469 "/>
<path style=" stroke:none;fill-rule:nonzero;fill:rgb(13.72549%,13.72549%,13.72549%);fill-opacity:1;" d="M 19.488281 17.972656 L 15.589844 20.21875 Z M 19.488281 17.972656 "/>
<path style=" stroke:none;fill-rule:nonzero;fill:rgb(13.72549%,13.72549%,13.72549%);fill-opacity:1;" d="M 35.074219 13.476562 L 31.179688 15.726562 Z M 35.074219 13.476562 "/>
<path style=" stroke:none;fill-rule:nonzero;fill:rgb(13.72549%,13.72549%,13.72549%);fill-opacity:1;" d="M 23.382812 20.214844 L 19.488281 22.460938 Z M 23.382812 20.214844 "/>
<path style=" stroke:none;fill-rule:nonzero;fill:rgb(33.72549%,33.72549%,33.72549%);fill-opacity:1;" d="M 12.414062 32.207031 L 14.867188 28.441406 Z M 12.414062 32.207031 "/>
<path style=" stroke:none;fill-rule:nonzero;fill:rgb(33.72549%,33.72549%,33.72549%);fill-opacity:1;" d="M 23.382812 11.230469 L 27.28125 13.476562 L 31.179688 11.230469 L 35.074219 8.984375 L 31.175781 6.742188 L 27.28125 8.988281 Z M 23.382812 11.230469 "/>
<path style=" stroke:none;fill-rule:nonzero;fill:rgb(33.72549%,33.72549%,33.72549%);fill-opacity:1;" d="M 15.589844 15.722656 L 11.691406 17.96875 L 15.589844 20.214844 L 19.488281 17.96875 L 23.382812 15.722656 L 19.488281 17.96875 L 15.589844 20.214844 L 19.484375 22.460938 L 27.28125 17.96875 L 19.484375 13.476562 Z M 15.589844 15.722656 "/>
<path style=" stroke:none;fill-rule:nonzero;fill:rgb(33.72549%,33.72549%,33.72549%);fill-opacity:1;" d="M 19.488281 4.492188 L 23.386719 2.246094 L 19.488281 0 L 11.691406 4.492188 L 15.589844 6.738281 Z M 19.488281 4.492188 "/>
<path style=" stroke:none;fill-rule:nonzero;fill:rgb(33.72549%,33.72549%,33.72549%);fill-opacity:1;" d="M 7.792969 11.230469 L 11.695312 8.984375 L 3.898438 13.476562 L 7.796875 15.722656 L 15.59375 11.230469 L 7.796875 6.738281 L 3.898438 8.984375 L 0.00390625 11.230469 L 3.898438 13.476562 Z M 7.792969 11.230469 "/>
<path style=" stroke:none;fill-rule:nonzero;fill:rgb(33.72549%,33.72549%,33.72549%);fill-opacity:1;" d="M 15.589844 6.738281 L 19.484375 8.984375 L 27.28125 4.492188 L 23.382812 2.246094 L 19.484375 4.492188 Z M 15.589844 6.738281 "/>
<path style=" stroke:none;fill-rule:nonzero;fill:rgb(33.72549%,33.72549%,33.72549%);fill-opacity:1;" d="M 27.28125 13.476562 L 31.179688 15.722656 L 38.976562 11.230469 L 35.078125 8.984375 Z M 27.28125 13.476562 "/>
<path style=" stroke:none;fill-rule:nonzero;fill:rgb(100%,76.470588%,18.039216%);fill-opacity:1;" d="M 3.898438 26.953125 L 7.796875 29.199219 L 8.398438 28.851562 L 8.5 28.792969 L 11.691406 26.953125 L 11.691406 22.460938 L 7.796875 24.707031 L 3.898438 22.460938 L 0 24.707031 L 2.886719 26.371094 L 3.617188 26.792969 Z M 3.898438 26.953125 "/>
<path style=" stroke:none;fill-rule:nonzero;fill:rgb(82.745098%,61.176471%,12.54902%);fill-opacity:1;" d="M 23.382812 15.722656 L 27.28125 17.96875 L 27.28125 13.476562 L 23.382812 11.230469 Z M 23.382812 15.722656 "/>
<path style=" stroke:none;fill-rule:nonzero;fill:rgb(82.745098%,61.176471%,12.54902%);fill-opacity:1;" d="M 27.28125 13.476562 L 27.28125 22.464844 L 31.179688 24.710938 L 31.179688 15.726562 Z M 27.28125 13.476562 "/>
<path style=" stroke:none;fill-rule:nonzero;fill:rgb(100%,76.470588%,18.039216%);fill-opacity:1;" d="M 27.28125 31.449219 L 23.382812 29.203125 L 19.484375 31.449219 L 15.589844 29.203125 L 11.691406 31.449219 L 15.589844 33.695312 L 19.484375 35.941406 L 21.507812 34.773438 L 23.382812 33.691406 L 27.277344 31.445312 Z M 27.28125 31.449219 "/>
</g>
</svg>
