<?xml version="1.0" encoding="UTF-8"?>
<svg xmlns="http://www.w3.org/2000/svg" xmlns:xlink="http://www.w3.org/1999/xlink" width="px" height="px" viewBox="0 0 38 44" version="1.1">
<g id="surface1">
<path style=" stroke:none;fill-rule:nonzero;fill:rgb(11.764706%,11.764706%,11.764706%);fill-opacity:1;" d="M 30.480469 28.542969 L 30.480469 15.371094 L 26.667969 17.566406 L 26.667969 39.523438 L 30.480469 37.328125 Z M 30.480469 28.542969 "/>
<path style=" stroke:none;fill-rule:nonzero;fill:rgb(11.764706%,11.764706%,11.764706%);fill-opacity:1;" d="M 22.859375 32.9375 L 22.859375 19.761719 L 19.050781 21.957031 L 19.050781 43.914062 L 22.859375 41.71875 Z M 22.859375 32.9375 "/>
<path style=" stroke:none;fill-rule:nonzero;fill:rgb(11.764706%,11.764706%,11.764706%);fill-opacity:1;" d="M 11.429688 13.175781 L 11.429688 8.785156 L 15.238281 10.980469 L 11.429688 8.785156 L 15.238281 6.589844 L 11.429688 8.785156 Z M 11.429688 13.175781 "/>
<path style=" stroke:none;fill-rule:nonzero;fill:rgb(11.764706%,11.764706%,11.764706%);fill-opacity:1;" d="M 7.621094 10.976562 L 3.808594 13.171875 L 3.808594 17.566406 L 3.808594 13.171875 L 7.621094 15.371094 L 3.808594 13.171875 Z M 7.621094 10.976562 "/>
<path style=" stroke:none;fill-rule:nonzero;fill:rgb(11.764706%,11.764706%,11.764706%);fill-opacity:1;" d="M 19.050781 13.175781 L 15.242188 10.980469 L 19.050781 8.785156 L 15.238281 10.980469 L 15.238281 15.371094 L 15.238281 10.980469 Z M 19.050781 13.175781 "/>
<path style=" stroke:none;fill-rule:nonzero;fill:rgb(11.764706%,11.764706%,11.764706%);fill-opacity:1;" d="M 11.429688 13.175781 L 7.621094 15.371094 L 7.621094 19.761719 L 7.621094 15.371094 L 11.429688 17.566406 L 7.621094 15.371094 Z M 11.429688 13.175781 "/>
<path style=" stroke:none;fill-rule:nonzero;fill:rgb(11.764706%,11.764706%,11.764706%);fill-opacity:1;" d="M 22.859375 15.371094 L 19.050781 13.171875 L 22.859375 10.976562 L 19.050781 13.171875 L 19.050781 17.566406 L 19.050781 13.171875 Z M 22.859375 15.371094 "/>
<path style=" stroke:none;fill-rule:nonzero;fill:rgb(11.764706%,11.764706%,11.764706%);fill-opacity:1;" d="M 15.242188 15.371094 L 11.429688 17.566406 L 11.429688 21.957031 L 11.429688 17.566406 L 15.242188 19.761719 L 11.429688 17.566406 Z M 15.242188 15.371094 "/>
<path style=" stroke:none;fill-rule:nonzero;fill:rgb(11.764706%,11.764706%,11.764706%);fill-opacity:1;" d="M 26.671875 13.175781 L 22.859375 15.371094 L 22.859375 19.761719 L 22.859375 15.371094 L 26.671875 17.566406 L 22.859375 15.371094 Z M 26.671875 13.175781 "/>
<path style=" stroke:none;fill-rule:nonzero;fill:rgb(11.764706%,11.764706%,11.764706%);fill-opacity:1;" d="M 15.238281 19.761719 L 19.050781 17.566406 L 15.238281 19.761719 L 15.238281 24.152344 L 15.238281 19.761719 L 19.050781 21.957031 Z M 15.238281 19.761719 "/>
<path style=" stroke:none;fill-rule:nonzero;fill:rgb(11.764706%,11.764706%,11.764706%);fill-opacity:1;" d="M 19.050781 8.78125 L 19.050781 4.390625 L 22.859375 6.585938 L 19.050781 4.390625 L 22.859375 2.195312 L 19.050781 4.390625 Z M 19.050781 8.78125 "/>
<path style=" stroke:none;fill-rule:nonzero;fill:rgb(11.764706%,11.764706%,11.764706%);fill-opacity:1;" d="M 22.859375 10.976562 L 22.859375 6.585938 L 26.667969 8.78125 L 22.859375 6.585938 L 26.667969 4.390625 L 22.859375 6.585938 Z M 22.859375 10.976562 "/>
<path style=" stroke:none;fill-rule:nonzero;fill:rgb(11.764706%,11.764706%,11.764706%);fill-opacity:1;" d="M 26.667969 13.175781 L 26.667969 8.785156 L 30.480469 10.980469 L 26.667969 8.785156 L 30.480469 6.585938 L 26.667969 8.785156 Z M 26.667969 13.175781 "/>
<path style=" stroke:none;fill-rule:nonzero;fill:rgb(11.764706%,11.764706%,11.764706%);fill-opacity:1;" d="M 30.480469 15.371094 L 30.480469 10.980469 L 34.289062 13.175781 L 30.480469 10.980469 L 34.289062 8.785156 L 30.480469 10.980469 Z M 30.480469 15.371094 "/>
<path style=" stroke:none;fill-rule:nonzero;fill:rgb(11.764706%,11.764706%,11.764706%);fill-opacity:1;" d="M 38.101562 10.980469 L 34.289062 13.175781 L 34.289062 35.132812 L 38.101562 32.9375 Z M 38.101562 10.980469 "/>
<path style=" stroke:none;fill-rule:nonzero;fill:rgb(82.745098%,61.176471%,12.54902%);fill-opacity:1;" d="M 34.289062 26.347656 L 34.289062 13.175781 L 30.480469 10.980469 L 30.480469 32.9375 L 34.289062 35.132812 Z M 34.289062 26.347656 "/>
<path style=" stroke:none;fill-rule:nonzero;fill:rgb(82.745098%,61.176471%,12.54902%);fill-opacity:1;" d="M 26.667969 30.738281 L 26.667969 17.566406 L 22.859375 15.371094 L 22.859375 37.328125 L 26.667969 39.523438 Z M 26.667969 30.738281 "/>
<path style=" stroke:none;fill-rule:nonzero;fill:rgb(82.745098%,61.176471%,12.54902%);fill-opacity:1;" d="M 15.238281 6.585938 L 19.050781 8.78125 L 19.050781 4.390625 L 15.238281 2.195312 Z M 15.238281 6.585938 "/>
<path style=" stroke:none;fill-rule:nonzero;fill:rgb(82.745098%,61.176471%,12.54902%);fill-opacity:1;" d="M 7.621094 10.976562 L 11.429688 13.171875 L 11.429688 8.78125 L 7.621094 6.585938 Z M 7.621094 10.976562 "/>
<path style=" stroke:none;fill-rule:nonzero;fill:rgb(82.745098%,61.176471%,12.54902%);fill-opacity:1;" d="M 19.050781 8.78125 L 22.859375 10.976562 L 22.859375 6.585938 L 19.050781 4.390625 Z M 19.050781 8.78125 "/>
<path style=" stroke:none;fill-rule:nonzero;fill:rgb(82.745098%,61.176471%,12.54902%);fill-opacity:1;" d="M 15.242188 10.980469 L 11.429688 8.785156 L 11.429688 13.175781 L 15.242188 15.371094 L 15.242188 10.976562 Z M 15.242188 10.980469 "/>
<path style=" stroke:none;fill-rule:nonzero;fill:rgb(82.745098%,61.176471%,12.54902%);fill-opacity:1;" d="M 22.859375 10.980469 L 26.667969 13.175781 L 26.667969 8.78125 L 22.859375 6.585938 Z M 22.859375 10.980469 "/>
<path style=" stroke:none;fill-rule:nonzero;fill:rgb(82.745098%,61.176471%,12.54902%);fill-opacity:1;" d="M 19.050781 13.175781 L 15.238281 10.980469 L 15.238281 15.371094 L 19.050781 17.566406 L 19.050781 13.171875 Z M 19.050781 13.175781 "/>
<path style=" stroke:none;fill-rule:nonzero;fill:rgb(82.745098%,61.176471%,12.54902%);fill-opacity:1;" d="M 26.667969 13.175781 L 30.480469 15.371094 L 30.480469 10.980469 L 26.667969 8.785156 Z M 26.667969 13.175781 "/>
<path style=" stroke:none;fill-rule:nonzero;fill:rgb(82.745098%,61.176471%,12.54902%);fill-opacity:1;" d="M 19.050781 13.175781 L 19.050781 17.566406 L 22.859375 19.761719 L 22.859375 15.371094 Z M 19.050781 13.175781 "/>
<path style=" stroke:none;fill-rule:nonzero;fill:rgb(13.72549%,13.72549%,13.72549%);fill-opacity:1;" d="M 3.808594 30.738281 L 3.808594 13.175781 L 0 10.980469 L 0 32.9375 L 3.808594 35.132812 Z M 3.808594 30.738281 "/>
<path style=" stroke:none;fill-rule:nonzero;fill:rgb(13.72549%,13.72549%,13.72549%);fill-opacity:1;" d="M 7.621094 32.9375 L 7.621094 15.371094 L 3.808594 13.175781 L 3.808594 35.132812 L 7.621094 37.328125 L 7.621094 32.933594 Z M 7.621094 32.9375 "/>
<path style=" stroke:none;fill-rule:nonzero;fill:rgb(13.72549%,13.72549%,13.72549%);fill-opacity:1;" d="M 11.429688 35.132812 L 11.429688 17.566406 L 7.621094 15.371094 L 7.621094 37.328125 L 11.429688 39.523438 Z M 11.429688 35.132812 "/>
<path style=" stroke:none;fill-rule:nonzero;fill:rgb(13.72549%,13.72549%,13.72549%);fill-opacity:1;" d="M 15.242188 37.328125 L 15.242188 19.761719 L 11.429688 17.566406 L 11.429688 39.523438 L 15.242188 41.71875 Z M 15.242188 37.328125 "/>
<path style=" stroke:none;fill-rule:nonzero;fill:rgb(13.72549%,13.72549%,13.72549%);fill-opacity:1;" d="M 19.050781 35.132812 L 19.050781 21.957031 L 15.238281 19.761719 L 15.238281 41.71875 L 19.050781 43.914062 Z M 19.050781 35.132812 "/>
<path style=" stroke:none;fill-rule:nonzero;fill:rgb(33.72549%,33.72549%,33.72549%);fill-opacity:1;" d="M 19.050781 4.390625 L 22.859375 2.195312 L 19.050781 0 L 15.238281 2.195312 Z M 19.050781 4.390625 "/>
<path style=" stroke:none;fill-rule:nonzero;fill:rgb(33.72549%,33.72549%,33.72549%);fill-opacity:1;" d="M 15.238281 6.585938 L 11.429688 4.390625 L 7.621094 6.585938 L 11.429688 8.78125 Z M 15.238281 6.585938 "/>
<path style=" stroke:none;fill-rule:nonzero;fill:rgb(33.72549%,33.72549%,33.72549%);fill-opacity:1;" d="M 7.621094 10.976562 L 3.808594 8.78125 L 0 10.976562 L 3.808594 13.171875 Z M 7.621094 10.976562 "/>
<path style=" stroke:none;fill-rule:nonzero;fill:rgb(33.72549%,33.72549%,33.72549%);fill-opacity:1;" d="M 19.050781 8.785156 L 15.238281 10.980469 L 19.050781 13.175781 L 22.859375 10.980469 Z M 19.050781 8.785156 "/>
<path style=" stroke:none;fill-rule:nonzero;fill:rgb(33.72549%,33.72549%,33.72549%);fill-opacity:1;" d="M 22.859375 10.980469 L 19.050781 13.175781 L 22.859375 15.371094 L 26.667969 13.175781 Z M 22.859375 10.980469 "/>
<path style=" stroke:none;fill-rule:nonzero;fill:rgb(33.72549%,33.72549%,33.72549%);fill-opacity:1;" d="M 19.050781 17.566406 L 15.238281 15.371094 L 7.621094 10.980469 L 3.808594 13.175781 L 7.621094 15.371094 L 11.429688 13.175781 L 7.621094 15.371094 L 11.429688 17.566406 L 15.238281 15.371094 L 11.429688 17.566406 L 15.238281 19.761719 Z M 19.050781 17.566406 "/>
<path style=" stroke:none;fill-rule:nonzero;fill:rgb(33.72549%,33.72549%,33.72549%);fill-opacity:1;" d="M 22.859375 6.585938 L 26.667969 4.390625 L 22.859375 2.195312 L 19.050781 4.390625 Z M 22.859375 6.585938 "/>
<path style=" stroke:none;fill-rule:nonzero;fill:rgb(33.72549%,33.72549%,33.72549%);fill-opacity:1;" d="M 11.429688 8.78125 L 15.238281 10.976562 L 19.050781 8.78125 L 15.238281 6.585938 Z M 11.429688 8.78125 "/>
<path style=" stroke:none;fill-rule:nonzero;fill:rgb(33.72549%,33.72549%,33.72549%);fill-opacity:1;" d="M 26.667969 8.78125 L 30.480469 6.585938 L 26.667969 4.390625 L 22.859375 6.585938 Z M 26.667969 8.78125 "/>
<path style=" stroke:none;fill-rule:nonzero;fill:rgb(33.72549%,33.72549%,33.72549%);fill-opacity:1;" d="M 30.480469 10.980469 L 34.289062 8.785156 L 30.480469 6.585938 L 26.667969 8.785156 Z M 30.480469 10.980469 "/>
<path style=" stroke:none;fill-rule:nonzero;fill:rgb(33.72549%,33.72549%,33.72549%);fill-opacity:1;" d="M 34.289062 13.175781 L 38.101562 10.980469 L 34.289062 8.785156 L 30.480469 10.980469 Z M 34.289062 13.175781 "/>
<path style=" stroke:none;fill-rule:nonzero;fill:rgb(33.72549%,33.72549%,33.72549%);fill-opacity:1;" d="M 30.480469 15.371094 L 26.671875 13.175781 L 22.859375 15.371094 L 26.671875 17.566406 Z M 30.480469 15.371094 "/>
<path style=" stroke:none;fill-rule:nonzero;fill:rgb(33.72549%,33.72549%,33.72549%);fill-opacity:1;" d="M 22.859375 19.761719 L 19.050781 17.566406 L 15.238281 19.761719 L 19.050781 21.957031 Z M 22.859375 19.761719 "/>
</g>
</svg>
