<?xml version="1.0" encoding="UTF-8"?>
<svg xmlns="http://www.w3.org/2000/svg" xmlns:xlink="http://www.w3.org/1999/xlink" width="px" height="px" viewBox="0 0 87 12" version="1.1">
<g id="surface1">
<path style=" stroke:none;fill-rule:nonzero;fill:rgb(100%,100%,100%);fill-opacity:1;" d="M 9.230469 0.0429688 L 9.230469 12.015625 L 8.367188 12.015625 L 8.367188 6.296875 L 0.859375 6.296875 L 0.859375 12.035156 L 0 12.035156 L 0 0.0429688 L 0.859375 0.0429688 L 0.859375 5.515625 L 8.371094 5.515625 L 8.371094 0.0429688 Z M 17.113281 11.320312 C 17.808594 11.34375 18.5 11.191406 19.125 10.875 C 19.636719 10.589844 20.070312 10.179688 20.382812 9.675781 C 20.703125 9.160156 20.929688 8.585938 21.042969 7.984375 C 21.175781 7.355469 21.242188 6.714844 21.242188 6.074219 L 21.242188 0.0429688 L 22.105469 0.0429688 L 22.105469 6.074219 C 22.109375 6.84375 22.019531 7.613281 21.839844 8.363281 C 21.679688 9.054688 21.394531 9.710938 21 10.300781 C 20.605469 10.855469 20.082031 11.308594 19.476562 11.613281 C 18.761719 11.964844 17.972656 12.132812 17.179688 12.101562 C 16.355469 12.125 15.539062 11.953125 14.796875 11.589844 C 14.1875 11.269531 13.664062 10.800781 13.273438 10.234375 C 12.875 9.648438 12.597656 8.992188 12.453125 8.296875 C 12.296875 7.566406 12.214844 6.820312 12.210938 6.074219 L 12.210938 0.0429688 L 13.074219 0.0429688 L 13.074219 6.074219 C 13.070312 6.722656 13.136719 7.371094 13.273438 8.007812 C 13.390625 8.601562 13.617188 9.167969 13.933594 9.679688 C 14.246094 10.175781 14.679688 10.582031 15.195312 10.859375 C 15.773438 11.199219 16.441406 11.359375 17.113281 11.328125 Z M 35.75 12.035156 L 35.75 1.667969 L 31.070312 9.746094 L 30.539062 9.746094 L 25.859375 1.667969 L 25.859375 12.015625 L 24.996094 12.015625 L 24.996094 0.0429688 L 25.859375 0.0429688 L 30.804688 8.609375 L 35.75 0.0429688 L 36.613281 0.0429688 L 36.613281 12.015625 Z M 43.457031 0.0429688 L 44.1875 0.0429688 L 49.199219 12.015625 L 48.292969 12.015625 L 46.636719 8.074219 L 40.960938 8.074219 L 39.304688 12.015625 L 38.378906 12.015625 Z M 46.417969 7.386719 L 43.835938 1.113281 L 41.183594 7.386719 Z M 51.871094 1.667969 L 51.871094 12.015625 L 51.007812 12.015625 L 51.007812 0.0429688 L 51.671875 0.0429688 L 60.019531 10.589844 L 60.019531 0.0429688 L 60.878906 0.0429688 L 60.878906 12.015625 L 60.109375 12.015625 Z M 68.699219 12.125 C 67.917969 12.132812 67.144531 11.949219 66.445312 11.589844 C 65.78125 11.25 65.183594 10.789062 64.679688 10.234375 C 64.1875 9.667969 63.804688 9.011719 63.554688 8.300781 C 63.292969 7.578125 63.15625 6.820312 63.15625 6.050781 C 63.144531 5.265625 63.296875 4.484375 63.597656 3.761719 C 63.871094 3.050781 64.269531 2.398438 64.769531 1.824219 C 65.261719 1.265625 65.863281 0.8125 66.535156 0.488281 C 67.957031 -0.179688 69.605469 -0.160156 71.015625 0.535156 C 71.691406 0.878906 72.292969 1.355469 72.785156 1.9375 C 73.753906 3.101562 74.292969 4.574219 74.308594 6.097656 C 74.3125 6.886719 74.171875 7.671875 73.886719 8.410156 C 73.613281 9.117188 73.214844 9.773438 72.71875 10.34375 C 72.222656 10.90625 71.621094 11.359375 70.949219 11.679688 C 70.234375 11.964844 69.46875 12.117188 68.699219 12.125 Z M 63.996094 6.027344 C 63.988281 6.707031 64.109375 7.378906 64.347656 8.011719 C 64.5625 8.632812 64.890625 9.207031 65.320312 9.703125 C 65.738281 10.191406 66.25 10.589844 66.820312 10.882812 C 67.417969 11.179688 68.078125 11.332031 68.742188 11.328125 C 69.417969 11.332031 70.082031 11.179688 70.6875 10.882812 C 71.253906 10.585938 71.757812 10.175781 72.164062 9.683594 C 72.996094 8.660156 73.449219 7.378906 73.445312 6.054688 C 73.453125 5.378906 73.332031 4.707031 73.09375 4.074219 C 72.863281 3.460938 72.535156 2.886719 72.121094 2.382812 C 71.707031 1.898438 71.203125 1.5 70.640625 1.203125 C 70.058594 0.90625 69.417969 0.753906 68.765625 0.757812 C 68.09375 0.75 67.425781 0.902344 66.820312 1.203125 C 66.253906 1.5 65.753906 1.910156 65.34375 2.402344 C 64.933594 2.90625 64.613281 3.480469 64.390625 4.09375 C 64.125 4.703125 63.992188 5.363281 63.996094 6.027344 Z M 81.308594 12.125 C 80.527344 12.132812 79.753906 11.949219 79.054688 11.589844 C 78.390625 11.25 77.792969 10.789062 77.289062 10.234375 C 76.796875 9.667969 76.414062 9.011719 76.164062 8.300781 C 75.902344 7.578125 75.765625 6.820312 75.765625 6.050781 C 75.753906 5.265625 75.90625 4.484375 76.207031 3.761719 C 76.480469 3.050781 76.878906 2.398438 77.378906 1.824219 C 77.871094 1.265625 78.472656 0.8125 79.144531 0.488281 C 80.566406 -0.179688 82.214844 -0.160156 83.625 0.535156 C 84.300781 0.878906 84.902344 1.355469 85.394531 1.9375 C 86.367188 3.101562 86.90625 4.574219 86.917969 6.097656 C 86.925781 6.886719 86.78125 7.671875 86.5 8.410156 C 86.222656 9.117188 85.828125 9.773438 85.328125 10.34375 C 84.835938 10.90625 84.234375 11.359375 83.5625 11.679688 C 82.84375 11.960938 82.082031 12.113281 81.308594 12.125 Z M 76.605469 6.027344 C 76.597656 6.707031 76.71875 7.378906 76.957031 8.011719 C 77.171875 8.632812 77.5 9.207031 77.929688 9.703125 C 78.347656 10.191406 78.859375 10.589844 79.429688 10.882812 C 80.027344 11.179688 80.6875 11.332031 81.351562 11.328125 C 82.023438 11.332031 82.691406 11.179688 83.296875 10.882812 C 83.863281 10.585938 84.367188 10.175781 84.773438 9.683594 C 85.605469 8.660156 86.058594 7.378906 86.054688 6.054688 C 86.0625 5.378906 85.941406 4.707031 85.703125 4.074219 C 85.472656 3.460938 85.144531 2.886719 84.730469 2.382812 C 84.316406 1.898438 83.8125 1.5 83.25 1.203125 C 82.667969 0.90625 82.027344 0.753906 81.375 0.757812 C 80.699219 0.75 80.035156 0.902344 79.429688 1.203125 C 78.863281 1.5 78.363281 1.910156 77.953125 2.402344 C 77.542969 2.90625 77.21875 3.480469 77 4.09375 C 76.734375 4.703125 76.601562 5.363281 76.605469 6.027344 Z M 76.605469 6.027344 "/>
</g>
</svg>
