<?xml version="1.0" encoding="UTF-8"?>
<svg xmlns="http://www.w3.org/2000/svg" xmlns:xlink="http://www.w3.org/1999/xlink" width="px" height="px" viewBox="0 0 86 28" version="1.1">
<g id="surface1">
<path style=" stroke:none;fill-rule:nonzero;fill:rgb(100%,100%,100%);fill-opacity:1;" d="M 23.984375 18.417969 C 22.261719 22.351562 18.378906 24.894531 14.085938 24.902344 C 9.792969 24.910156 5.902344 22.375 4.167969 18.449219 L 8.460938 14.152344 L 14.089844 19.789062 L 19.722656 14.152344 Z M 28.152344 14.09375 C 28.15625 6.453125 22.070312 0.203125 14.433594 0.00390625 C 6.796875 -0.195312 0.394531 5.730469 0 13.363281 L 4.746094 8.613281 C 7.21875 4.410156 12.199219 2.382812 16.902344 3.664062 C 21.601562 4.945312 24.867188 9.21875 24.863281 14.09375 L 24.863281 14.644531 L 19.722656 9.527344 L 14.089844 15.160156 L 8.460938 9.527344 L 0.425781 17.59375 C 2.1875 24.476562 8.789062 28.96875 15.832031 28.082031 C 22.875 27.191406 28.15625 21.195312 28.152344 14.09375 "/>
<path style=" stroke:none;fill-rule:nonzero;fill:rgb(100%,100%,100%);fill-opacity:1;" d="M 34.085938 4.683594 L 35.792969 4.683594 L 37.679688 7.730469 L 39.566406 4.683594 L 41.269531 4.683594 L 41.269531 11.871094 L 39.6875 11.871094 L 39.6875 7.183594 L 37.679688 10.257812 L 37.648438 10.257812 L 35.640625 7.210938 L 35.640625 11.871094 L 34.085938 11.871094 Z M 45.441406 4.625 L 46.902344 4.625 L 49.976562 11.871094 L 48.332031 11.871094 L 47.660156 10.257812 L 44.617188 10.257812 L 43.949219 11.871094 L 42.335938 11.871094 Z M 47.113281 8.855469 L 46.167969 6.511719 L 45.226562 8.855469 Z M 51.160156 4.683594 L 52.746094 4.683594 L 52.746094 11.871094 L 51.160156 11.871094 Z M 53.992188 4.683594 L 55.695312 4.683594 L 57.1875 9.554688 L 58.800781 4.652344 L 60.171875 4.652344 L 61.785156 9.554688 L 63.273438 4.683594 L 64.917969 4.683594 L 62.453125 11.929688 L 61.082031 11.929688 L 59.46875 7.242188 L 57.828125 11.929688 L 56.457031 11.929688 Z M 67.628906 4.625 L 69.089844 4.625 L 72.164062 11.871094 L 70.519531 11.871094 L 69.847656 10.257812 L 66.804688 10.257812 L 66.136719 11.871094 L 64.523438 11.871094 Z M 69.269531 8.855469 L 68.328125 6.511719 L 67.382812 8.855469 Z M 73.257812 4.683594 L 74.839844 4.683594 L 74.839844 10.4375 L 78.429688 10.4375 L 78.429688 11.867188 L 73.257812 11.867188 Z M 79.617188 4.683594 L 82.417969 4.683594 C 84.667969 4.683594 86.222656 6.238281 86.222656 8.246094 L 86.222656 8.277344 C 86.222656 10.289062 84.667969 11.871094 82.417969 11.871094 L 79.617188 11.871094 Z M 82.417969 10.4375 C 82.996094 10.46875 83.558594 10.253906 83.96875 9.847656 C 84.378906 9.441406 84.601562 8.882812 84.578125 8.304688 L 84.578125 8.273438 C 84.605469 7.691406 84.390625 7.125 83.976562 6.714844 C 83.566406 6.300781 83 6.085938 82.417969 6.113281 L 81.199219 6.113281 L 81.199219 10.4375 Z M 34.085938 15.066406 L 34.546875 15.066406 L 34.546875 18.449219 L 34.085938 18.449219 Z M 35.519531 15.066406 L 36.128906 15.066406 L 37.984375 17.839844 L 37.984375 15.066406 L 38.441406 15.066406 L 38.441406 18.449219 L 37.863281 18.449219 L 35.976562 15.675781 L 35.976562 18.449219 L 35.519531 18.449219 Z M 40.113281 15.492188 L 39.019531 15.492188 L 39.019531 15.066406 L 41.636719 15.066406 L 41.636719 15.492188 L 40.539062 15.492188 L 40.539062 18.445312 L 40.082031 18.445312 L 40.082031 15.492188 Z M 42.246094 15.066406 L 44.433594 15.066406 L 44.433594 15.492188 L 42.699219 15.492188 L 42.699219 16.5 L 44.3125 16.5 L 44.3125 16.925781 L 42.699219 16.925781 L 42.699219 18.019531 L 44.496094 18.019531 L 44.496094 18.445312 L 42.246094 18.445312 Z M 45.226562 15.066406 L 45.683594 15.066406 L 45.683594 18.019531 L 47.238281 18.019531 L 47.238281 18.445312 L 45.226562 18.445312 Z M 47.8125 15.066406 L 48.273438 15.066406 L 48.273438 18.019531 L 49.824219 18.019531 L 49.824219 18.445312 L 47.816406 18.445312 Z M 50.371094 15.066406 L 52.5625 15.066406 L 52.5625 15.492188 L 50.828125 15.492188 L 50.828125 16.5 L 52.441406 16.5 L 52.441406 16.925781 L 50.828125 16.925781 L 50.828125 18.019531 L 52.621094 18.019531 L 52.621094 18.445312 L 50.371094 18.445312 Z M 57.523438 15.492188 L 56.425781 15.492188 L 56.425781 15.066406 L 59.042969 15.066406 L 59.042969 15.492188 L 57.949219 15.492188 L 57.949219 18.445312 L 57.523438 18.445312 Z M 64.15625 15.066406 L 64.582031 15.066406 L 66.015625 18.449219 L 65.464844 18.449219 L 65.132812 17.625 L 63.519531 17.625 L 63.183594 18.449219 L 62.636719 18.449219 Z M 64.980469 17.199219 L 64.339844 15.644531 L 63.699219 17.199219 Z M 66.5625 15.066406 L 67.019531 15.066406 L 67.019531 18.019531 L 68.570312 18.019531 L 68.570312 18.445312 L 66.5625 18.445312 Z M 46.960938 20.546875 L 49.152344 20.546875 L 49.152344 20.972656 L 47.417969 20.972656 L 47.417969 21.980469 L 49.03125 21.980469 L 49.03125 22.40625 L 47.417969 22.40625 L 47.417969 23.5 L 49.214844 23.5 L 49.214844 23.929688 L 46.960938 23.929688 Z M 53.597656 20.972656 L 52.5 20.972656 L 52.5 20.546875 L 55.117188 20.546875 L 55.117188 20.972656 L 54.023438 20.972656 L 54.023438 23.925781 L 53.566406 23.925781 L 53.566406 20.972656 Z M 56.519531 22.464844 L 55.238281 20.519531 L 55.816406 20.519531 L 56.730469 22.011719 L 57.675781 20.519531 L 58.222656 20.519531 L 56.945312 22.464844 L 56.945312 23.898438 L 56.484375 23.898438 L 56.484375 22.464844 Z M 49.976562 20.546875 L 51.160156 20.546875 C 51.375 20.546875 52.257812 20.578125 52.257812 21.492188 C 52.242188 21.824219 52.058594 22.121094 51.769531 22.285156 C 51.671875 22.347656 51.554688 22.378906 51.4375 22.375 L 52.378906 23.929688 L 51.800781 23.929688 L 50.949219 22.4375 L 50.429688 22.4375 L 50.429688 23.929688 L 49.972656 23.929688 Z M 50.433594 22.011719 L 51.042969 22.011719 C 51.257812 22.011719 51.773438 22.011719 51.773438 21.460938 C 51.773438 20.882812 51.195312 20.914062 51.042969 20.914062 L 50.433594 20.914062 Z M 55.726562 15.800781 C 55.53125 15.546875 55.226562 15.402344 54.90625 15.402344 C 54.554688 15.40625 54.222656 15.558594 53.984375 15.816406 C 53.75 16.078125 53.628906 16.421875 53.660156 16.773438 C 53.636719 17.117188 53.757812 17.453125 53.996094 17.699219 C 54.234375 17.949219 54.5625 18.085938 54.90625 18.082031 C 55.261719 18.09375 55.59375 17.921875 55.789062 17.625 L 56.183594 17.929688 C 55.871094 18.308594 55.398438 18.519531 54.90625 18.507812 C 53.949219 18.507812 53.171875 17.730469 53.171875 16.773438 C 53.148438 16.292969 53.324219 15.828125 53.660156 15.484375 C 53.996094 15.144531 54.457031 14.960938 54.9375 14.976562 C 55.390625 14.949219 55.832031 15.144531 56.125 15.492188 Z M 60.050781 15.070312 L 60.050781 17.140625 C 60.050781 17.230469 60.113281 18.113281 60.902344 18.113281 C 61.695312 18.113281 61.753906 17.261719 61.753906 17.140625 L 61.753906 15.066406 L 62.214844 15.066406 L 62.214844 17.199219 C 62.21875 17.546875 62.085938 17.886719 61.835938 18.132812 C 61.589844 18.378906 61.253906 18.515625 60.902344 18.507812 C 60.554688 18.519531 60.214844 18.386719 59.964844 18.136719 C 59.71875 17.890625 59.582031 17.550781 59.59375 17.199219 L 59.59375 15.066406 Z M 59.59375 17.199219 L 59.59375 15.066406 M 34.058594 20.546875 L 35.246094 20.546875 C 35.457031 20.546875 36.339844 20.578125 36.339844 21.492188 C 36.347656 21.773438 36.226562 22.039062 36.015625 22.222656 C 35.804688 22.40625 35.519531 22.484375 35.246094 22.4375 L 34.515625 22.4375 L 34.515625 23.929688 L 34.058594 23.929688 Z M 34.515625 22.03125 L 35.125 22.03125 C 35.402344 22.03125 35.855469 22.011719 35.855469 21.460938 C 35.855469 20.882812 35.214844 20.914062 35.125 20.914062 L 34.515625 20.914062 Z M 44.042969 20.546875 L 45.226562 20.546875 C 45.441406 20.546875 46.324219 20.578125 46.324219 21.492188 C 46.332031 21.773438 46.210938 22.039062 46 22.222656 C 45.785156 22.40625 45.503906 22.484375 45.226562 22.4375 L 44.5 22.4375 L 44.5 23.929688 L 44.039062 23.929688 Z M 44.5 22.03125 L 45.109375 22.03125 C 45.386719 22.03125 45.839844 22.011719 45.839844 21.460938 C 45.839844 20.882812 45.199219 20.914062 45.109375 20.914062 L 44.5 20.914062 Z M 36.980469 20.546875 L 38.164062 20.546875 C 38.378906 20.546875 39.261719 20.578125 39.261719 21.492188 C 39.246094 21.824219 39.0625 22.121094 38.773438 22.285156 C 38.671875 22.347656 38.558594 22.378906 38.441406 22.375 L 39.382812 23.929688 L 38.804688 23.929688 L 37.953125 22.4375 L 37.433594 22.4375 L 37.433594 23.929688 L 36.976562 23.929688 Z M 37.4375 22.011719 L 38.046875 22.011719 C 38.261719 22.011719 38.777344 22.011719 38.777344 21.460938 C 38.777344 20.882812 38.199219 20.914062 38.046875 20.914062 L 37.4375 20.914062 Z M 41.546875 23.988281 C 41.074219 23.996094 40.625 23.808594 40.292969 23.476562 C 39.960938 23.144531 39.777344 22.691406 39.78125 22.222656 C 39.769531 21.753906 39.953125 21.296875 40.285156 20.964844 C 40.621094 20.628906 41.074219 20.449219 41.546875 20.457031 C 42.015625 20.453125 42.46875 20.636719 42.800781 20.96875 C 43.132812 21.300781 43.316406 21.753906 43.3125 22.222656 C 43.300781 23.195312 42.515625 23.976562 41.542969 23.988281 Z M 41.546875 23.5625 C 43.21875 23.5625 43.21875 20.882812 41.546875 20.882812 C 39.871094 20.882812 39.871094 23.5625 41.542969 23.5625 Z M 41.546875 23.5625 "/>
</g>
</svg>
