<?xml version="1.0" encoding="UTF-8"?>
<svg xmlns="http://www.w3.org/2000/svg" xmlns:xlink="http://www.w3.org/1999/xlink" width="px" height="px" viewBox="0 0 93 23" version="1.1">
<g id="surface1">
<path style=" stroke:none;fill-rule:nonzero;fill:rgb(100%,100%,100%);fill-opacity:1;" d="M 74.914062 9.847656 C 74.914062 10.632812 74.914062 11.398438 74.9375 11.796875 C 74.722656 11.988281 74.445312 12.089844 74.15625 12.078125 C 74.144531 12.078125 73.707031 11.457031 73.082031 10.753906 L 70.019531 7.289062 C 69.578125 6.738281 69.09375 6.21875 68.574219 5.738281 C 68.5 5.988281 68.480469 6.253906 68.507812 6.511719 L 68.507812 8.863281 C 68.46875 9.609375 68.535156 10.355469 68.707031 11.082031 C 68.828125 11.339844 69.132812 11.410156 69.476562 11.46875 L 69.847656 11.519531 C 69.941406 11.644531 69.941406 11.816406 69.847656 11.941406 C 69.132812 11.917969 68.601562 11.90625 68.070312 11.90625 C 67.578125 11.90625 67.089844 11.917969 66.582031 11.941406 C 66.492188 11.816406 66.492188 11.644531 66.582031 11.519531 L 66.808594 11.480469 C 67.164062 11.410156 67.417969 11.335938 67.539062 11.082031 C 67.699219 10.355469 67.761719 9.609375 67.726562 8.863281 L 67.726562 5.785156 C 67.726562 5.121094 67.726562 4.925781 67.632812 4.753906 C 67.539062 4.550781 67.339844 4.429688 66.875 4.34375 L 66.503906 4.292969 C 66.414062 4.199219 66.425781 3.90625 66.554688 3.871094 C 67.179688 3.894531 67.84375 3.90625 68.386719 3.90625 C 68.835938 3.90625 69.148438 3.894531 69.425781 3.871094 C 69.558594 4.417969 70.421875 5.335938 71.613281 6.632812 L 72.726562 7.832031 C 73.320312 8.464844 73.757812 8.941406 74.0625 9.222656 C 74.117188 9.027344 74.140625 8.824219 74.132812 8.621094 L 74.132812 6.949219 C 74.171875 6.203125 74.105469 5.457031 73.933594 4.730469 C 73.8125 4.476562 73.523438 4.402344 73.164062 4.34375 L 72.808594 4.292969 C 72.714844 4.167969 72.714844 3.996094 72.808594 3.871094 C 73.523438 3.894531 74.042969 3.90625 74.585938 3.90625 C 75.078125 3.90625 75.554688 3.894531 76.074219 3.871094 C 76.164062 3.996094 76.164062 4.167969 76.074219 4.292969 L 75.832031 4.332031 C 75.488281 4.402344 75.238281 4.476562 75.117188 4.730469 C 74.945312 5.457031 74.878906 6.203125 74.917969 6.949219 Z M 87.136719 9.167969 C 86.816406 9.167969 86.777344 9.179688 86.699219 9.410156 L 86.207031 10.816406 C 86.152344 10.957031 86.121094 11.101562 86.113281 11.253906 C 86.113281 11.324219 86.21875 11.398438 86.589844 11.457031 L 86.988281 11.519531 C 87.066406 11.601562 87.09375 11.882812 86.960938 11.941406 C 86.5 11.917969 85.96875 11.917969 85.410156 11.90625 C 84.960938 11.90625 84.65625 11.941406 84.046875 11.941406 C 83.898438 11.867188 83.914062 11.613281 84.007812 11.519531 L 84.363281 11.480469 C 84.730469 11.46875 85.054688 11.226562 85.171875 10.875 C 85.410156 10.390625 85.636719 9.808594 85.992188 8.9375 L 87.1875 5.980469 C 87.503906 5.214844 87.746094 4.789062 87.703125 4.441406 C 88.144531 4.300781 88.542969 4.050781 88.855469 3.710938 C 89.03125 3.710938 89.109375 3.773438 89.160156 3.953125 C 89.269531 4.304688 89.429688 4.753906 89.757812 5.613281 L 91.5625 10.367188 C 91.839844 11.097656 91.960938 11.359375 92.449219 11.445312 L 92.953125 11.519531 C 93.035156 11.578125 93.058594 11.871094 92.941406 11.941406 C 92.304688 11.917969 91.589844 11.90625 90.898438 11.90625 C 90.238281 11.90625 89.71875 11.917969 89.109375 11.941406 C 89.039062 11.898438 88.992188 11.824219 88.988281 11.738281 C 88.980469 11.652344 89.015625 11.570312 89.082031 11.519531 L 89.546875 11.457031 C 89.851562 11.410156 89.902344 11.324219 89.902344 11.253906 C 89.84375 10.972656 89.757812 10.695312 89.648438 10.429688 L 89.292969 9.386719 C 89.226562 9.191406 89.121094 9.167969 88.65625 9.167969 Z M 88.59375 8.523438 C 88.898438 8.523438 88.980469 8.488281 88.859375 8.171875 L 88.515625 7.191406 C 88.328125 6.671875 88.136719 6.125 88.019531 5.871094 C 87.808594 6.324219 87.617188 6.78125 87.453125 7.253906 L 87.121094 8.160156 C 86.988281 8.488281 87.070312 8.523438 87.398438 8.523438 Z M 28.785156 5.871094 C 28.785156 4.648438 28.757812 4.511719 28.253906 4.441406 L 27.878906 4.390625 C 27.824219 4.335938 27.796875 4.257812 27.800781 4.179688 C 27.804688 4.101562 27.84375 4.027344 27.902344 3.980469 C 28.699219 3.917969 29.636719 3.871094 30.6875 3.871094 C 31.4375 3.839844 32.183594 3.945312 32.894531 4.183594 C 33.789062 4.484375 34.386719 5.332031 34.363281 6.28125 C 34.363281 8.269531 32.375 8.558594 31.734375 8.558594 C 31.589844 8.558594 31.480469 8.558594 31.351562 8.546875 C 31.300781 8.507812 31.273438 8.453125 31.265625 8.390625 C 31.257812 8.328125 31.277344 8.269531 31.316406 8.21875 C 32.316406 7.90625 32.519531 7.191406 32.519531 6.292969 C 32.519531 5.398438 32.0625 4.425781 30.976562 4.425781 C 30.53125 4.425781 30.507812 4.558594 30.507812 5.042969 L 30.507812 10.160156 C 30.507812 11.285156 30.582031 11.375 31.121094 11.472656 L 31.507812 11.53125 C 31.570312 11.582031 31.605469 11.65625 31.605469 11.738281 C 31.605469 11.816406 31.570312 11.894531 31.507812 11.945312 C 30.832031 11.917969 30.242188 11.910156 29.664062 11.910156 C 29.085938 11.910156 28.507812 11.921875 27.855469 11.945312 C 27.726562 11.871094 27.699219 11.59375 27.832031 11.535156 L 28.171875 11.472656 C 28.714844 11.375 28.785156 11.289062 28.785156 10.164062 Z M 39.28125 7.058594 C 39.28125 7.398438 39.292969 7.421875 39.617188 7.421875 L 40.449219 7.421875 C 41.078125 7.421875 41.210938 7.339844 41.34375 6.757812 L 41.402344 6.457031 C 41.488281 6.359375 41.789062 6.359375 41.847656 6.46875 C 41.824219 6.855469 41.8125 7.292969 41.8125 7.753906 C 41.8125 8.210938 41.824219 8.648438 41.847656 9.035156 C 41.722656 9.148438 41.535156 9.15625 41.402344 9.046875 L 41.34375 8.746094 C 41.210938 8.164062 41.078125 8.066406 40.449219 8.066406 L 39.617188 8.066406 C 39.292969 8.066406 39.28125 8.078125 39.28125 8.441406 L 39.28125 9.886719 C 39.242188 10.28125 39.308594 10.675781 39.472656 11.035156 C 39.628906 11.253906 39.859375 11.351562 40.738281 11.351562 C 41.785156 11.351562 42.195312 11.316406 42.859375 9.945312 C 42.925781 9.886719 43.011719 9.859375 43.097656 9.871094 C 43.183594 9.882812 43.257812 9.933594 43.304688 10.007812 C 43.230469 10.675781 43.0625 11.328125 42.800781 11.945312 C 42.160156 11.921875 41.003906 11.910156 40.015625 11.910156 L 38.449219 11.910156 C 37.871094 11.910156 37.277344 11.921875 36.375 11.945312 C 36.277344 11.820312 36.277344 11.644531 36.375 11.519531 L 36.941406 11.4375 C 37.484375 11.363281 37.554688 11.277344 37.554688 10.164062 L 37.554688 5.640625 C 37.554688 4.539062 37.484375 4.453125 36.941406 4.355469 L 36.640625 4.296875 C 36.535156 4.171875 36.542969 3.984375 36.664062 3.871094 C 37.230469 3.894531 37.820312 3.90625 38.398438 3.90625 L 40.957031 3.90625 C 41.726562 3.90625 42.414062 3.894531 42.570312 3.871094 C 42.582031 4.066406 42.667969 4.9375 42.726562 5.753906 C 42.675781 5.886719 42.402344 5.910156 42.28125 5.800781 C 42.191406 5.453125 42.035156 5.128906 41.824219 4.839844 C 41.496094 4.558594 41.070312 4.425781 40.640625 4.464844 L 39.675781 4.464844 C 39.277344 4.464844 39.277344 4.488281 39.277344 4.9375 Z M 52.902344 4.027344 C 52.910156 4.660156 52.960938 5.292969 53.046875 5.917969 C 52.941406 6.070312 52.738281 6.105469 52.589844 6.003906 C 52.359375 4.945312 51.398438 4.207031 50.324219 4.269531 C 48.984375 4.269531 47.550781 5.421875 47.550781 7.835938 C 47.550781 10.246094 48.9375 11.542969 50.382812 11.542969 C 51.839844 11.542969 52.515625 10.488281 52.839844 9.664062 C 52.992188 9.566406 53.191406 9.605469 53.300781 9.746094 C 53.265625 10.40625 53.109375 11.050781 52.839844 11.648438 C 52.050781 11.914062 51.226562 12.066406 50.394531 12.097656 C 49.246094 12.140625 48.113281 11.820312 47.152344 11.179688 C 46.15625 10.4375 45.585938 9.25 45.621094 8.003906 C 45.585938 6.761719 46.125 5.578125 47.082031 4.792969 C 48.039062 4.058594 49.214844 3.679688 50.417969 3.714844 C 51.253906 3.746094 52.085938 3.851562 52.902344 4.03125 Z M 56.507812 5.652344 C 56.507812 4.527344 56.433594 4.441406 55.863281 4.34375 L 55.546875 4.28125 C 55.492188 4.226562 55.464844 4.148438 55.46875 4.070312 C 55.476562 3.992188 55.511719 3.921875 55.574219 3.871094 C 56.183594 3.894531 56.8125 3.90625 57.421875 3.90625 C 58.039062 3.90625 58.660156 3.894531 59.269531 3.871094 C 59.371094 3.988281 59.371094 4.164062 59.269531 4.28125 L 58.964844 4.332031 C 58.394531 4.441406 58.316406 4.523438 58.316406 5.652344 L 58.316406 8.453125 C 58.316406 9.875 58.484375 11.433594 60.40625 11.433594 C 62.027344 11.433594 62.519531 10.078125 62.519531 8.417969 L 62.519531 6.953125 C 62.558594 6.207031 62.496094 5.460938 62.328125 4.734375 C 62.214844 4.476562 61.9375 4.40625 61.59375 4.347656 L 61.25 4.285156 C 61.164062 4.164062 61.164062 3.996094 61.25 3.875 C 61.933594 3.898438 62.429688 3.910156 62.949219 3.910156 C 63.414062 3.910156 63.882812 3.898438 64.363281 3.875 C 64.453125 3.996094 64.453125 4.164062 64.363281 4.285156 L 64.136719 4.332031 C 63.808594 4.40625 63.566406 4.480469 63.453125 4.734375 C 63.289062 5.460938 63.222656 6.207031 63.265625 6.953125 L 63.265625 8.308594 C 63.265625 9.449219 63.148438 10.492188 62.453125 11.230469 C 61.765625 11.839844 60.863281 12.152344 59.949219 12.101562 C 59.058594 12.167969 58.175781 11.929688 57.441406 11.425781 C 56.78125 10.902344 56.507812 10.003906 56.507812 8.683594 Z M 81.085938 10.136719 C 81.085938 11.277344 81.160156 11.363281 81.742188 11.457031 L 82.121094 11.519531 C 82.21875 11.644531 82.210938 11.824219 82.105469 11.945312 C 81.421875 11.917969 80.804688 11.90625 80.207031 11.90625 C 79.597656 11.90625 78.96875 11.917969 78.285156 11.945312 C 78.183594 11.820312 78.183594 11.640625 78.285156 11.519531 L 78.667969 11.457031 C 79.25 11.363281 79.328125 11.277344 79.328125 10.136719 L 79.328125 5.675781 C 79.328125 4.539062 79.25 4.453125 78.667969 4.355469 L 78.285156 4.292969 C 78.183594 4.171875 78.183594 3.992188 78.285156 3.871094 C 78.96875 3.894531 79.601562 3.90625 80.207031 3.90625 C 80.804688 3.90625 81.4375 3.894531 82.121094 3.871094 C 82.21875 3.992188 82.21875 4.171875 82.121094 4.292969 L 81.742188 4.355469 C 81.160156 4.453125 81.085938 4.539062 81.085938 5.675781 Z M 81.085938 10.136719 "/>
<path style=" stroke:none;fill-rule:nonzero;fill:rgb(100%,100%,100%);fill-opacity:1;" d="M 29.644531 19.023438 L 28.929688 19.023438 L 27.765625 14.5625 L 28.433594 14.5625 L 29.066406 17.558594 C 29.160156 18.015625 29.289062 18.734375 29.289062 18.734375 C 29.289062 18.734375 29.414062 18.015625 29.507812 17.558594 L 30.144531 14.5625 L 30.808594 14.5625 Z M 33.507812 17.511719 L 31.605469 17.511719 C 31.632812 18.597656 32.144531 18.585938 32.46875 18.585938 C 32.765625 18.5625 33.054688 18.503906 33.339844 18.417969 L 33.339844 18.929688 C 33.058594 19.027344 32.765625 19.082031 32.46875 19.089844 C 31.808594 19.089844 31.042969 18.953125 31.042969 17.335938 C 31.042969 15.917969 31.671875 15.582031 32.3125 15.582031 C 32.902344 15.582031 33.566406 15.84375 33.515625 17.335938 Z M 32.308594 16.015625 C 31.898438 16.015625 31.640625 16.222656 31.613281 17.121094 L 32.949219 17.121094 C 32.949219 16.164062 32.652344 16.015625 32.308594 16.015625 Z M 35.476562 16.183594 C 35.273438 16.195312 35.082031 16.292969 34.949219 16.449219 L 34.949219 19.023438 L 34.378906 19.023438 L 34.378906 15.648438 L 34.816406 15.648438 L 34.898438 16.09375 C 35.019531 15.800781 35.296875 15.601562 35.613281 15.582031 C 35.707031 15.585938 35.796875 15.601562 35.890625 15.621094 L 35.890625 16.246094 C 35.757812 16.203125 35.617188 16.183594 35.476562 16.183594 Z M 40.113281 19.023438 L 40.113281 16.566406 C 40.113281 16.15625 39.925781 16.101562 39.671875 16.101562 C 39.375 16.140625 39.089844 16.253906 38.847656 16.429688 L 38.847656 19.023438 L 38.277344 19.023438 L 38.277344 16.566406 C 38.277344 16.15625 38.085938 16.101562 37.832031 16.101562 C 37.53125 16.125 37.246094 16.242188 37.011719 16.429688 L 37.011719 19.023438 L 36.4375 19.023438 L 36.4375 15.648438 L 36.863281 15.648438 L 36.988281 16.058594 C 37.253906 15.789062 37.605469 15.625 37.976562 15.585938 C 38.371094 15.585938 38.71875 15.757812 38.78125 16.089844 C 39.058594 15.804688 39.421875 15.625 39.816406 15.585938 C 40.347656 15.585938 40.683594 15.816406 40.683594 16.59375 L 40.683594 19.027344 Z M 42.898438 19.085938 C 42.292969 19.085938 41.523438 18.882812 41.523438 17.335938 C 41.523438 15.816406 42.304688 15.582031 42.898438 15.582031 C 43.488281 15.582031 44.269531 15.78125 44.269531 17.335938 C 44.273438 18.910156 43.5 19.085938 42.898438 19.085938 Z M 42.175781 15.136719 C 42.019531 15.136719 41.878906 15.046875 41.816406 14.902344 C 41.753906 14.761719 41.785156 14.59375 41.894531 14.484375 C 42.003906 14.371094 42.167969 14.335938 42.3125 14.394531 C 42.453125 14.457031 42.546875 14.597656 42.546875 14.75 C 42.550781 14.851562 42.511719 14.949219 42.441406 15.023438 C 42.371094 15.09375 42.273438 15.136719 42.175781 15.136719 Z M 42.898438 16.019531 C 42.546875 16.019531 42.09375 16.109375 42.09375 17.332031 C 42.09375 18.558594 42.613281 18.636719 42.898438 18.636719 C 43.183594 18.636719 43.703125 18.53125 43.703125 17.332031 C 43.703125 16.09375 43.242188 16.023438 42.898438 16.023438 Z M 43.625 15.136719 C 43.46875 15.136719 43.328125 15.046875 43.269531 14.902344 C 43.207031 14.761719 43.238281 14.59375 43.34375 14.484375 C 43.453125 14.371094 43.617188 14.335938 43.761719 14.394531 C 43.90625 14.457031 44 14.597656 44 14.75 C 44 14.851562 43.964844 14.949219 43.894531 15.023438 C 43.824219 15.09375 43.726562 15.136719 43.625 15.136719 Z M 47.078125 16.078125 C 47.230469 16.257812 47.316406 16.484375 47.320312 16.71875 C 47.347656 17.035156 47.230469 17.347656 47.003906 17.570312 C 46.773438 17.789062 46.460938 17.894531 46.144531 17.859375 C 45.976562 17.859375 45.804688 17.828125 45.644531 17.769531 C 45.527344 17.894531 45.449219 17.992188 45.449219 18.09375 C 45.449219 18.285156 45.53125 18.316406 45.832031 18.328125 L 46.609375 18.367188 C 47.242188 18.398438 47.59375 18.589844 47.59375 19.214844 C 47.59375 20.050781 46.972656 20.296875 46.070312 20.296875 C 45.355469 20.296875 44.855469 20.03125 44.855469 19.398438 C 44.867188 19.121094 45.007812 18.859375 45.238281 18.699219 C 45.070312 18.605469 44.972656 18.421875 44.984375 18.226562 C 45.023438 17.976562 45.160156 17.753906 45.371094 17.609375 C 45 17.292969 44.871094 16.773438 45.046875 16.320312 C 45.222656 15.863281 45.664062 15.570312 46.148438 15.582031 C 46.402344 15.582031 46.496094 15.648438 46.765625 15.648438 L 47.664062 15.648438 L 47.664062 16.078125 Z M 46.542969 18.863281 L 45.679688 18.8125 C 45.632812 18.8125 45.582031 18.808594 45.535156 18.800781 C 45.429688 18.9375 45.367188 19.101562 45.363281 19.273438 C 45.363281 19.636719 45.570312 19.898438 46.066406 19.898438 C 46.796875 19.898438 47.054688 19.667969 47.054688 19.265625 C 47.054688 18.949219 46.917969 18.882812 46.542969 18.863281 Z M 46.144531 15.976562 C 45.6875 15.976562 45.519531 16.226562 45.519531 16.71875 C 45.519531 17.164062 45.726562 17.464844 46.144531 17.464844 C 46.582031 17.464844 46.773438 17.164062 46.773438 16.71875 C 46.773438 16.269531 46.566406 15.976562 46.144531 15.976562 Z M 50.488281 17.511719 L 48.585938 17.511719 C 48.609375 18.59375 49.125 18.582031 49.449219 18.582031 C 49.742188 18.558594 50.035156 18.503906 50.316406 18.417969 L 50.316406 18.929688 C 50.039062 19.023438 49.746094 19.078125 49.449219 19.085938 C 48.789062 19.085938 48.023438 18.953125 48.023438 17.335938 C 48.023438 15.914062 48.652344 15.582031 49.292969 15.582031 C 49.882812 15.582031 50.546875 15.84375 50.496094 17.335938 Z M 49.289062 16.015625 C 48.878906 16.015625 48.617188 16.21875 48.589844 17.117188 L 49.925781 17.117188 C 49.925781 16.160156 49.632812 16.015625 49.289062 16.015625 Z M 53.386719 19.023438 L 53.386719 16.566406 C 53.386719 16.113281 53.101562 16.101562 52.847656 16.101562 C 52.519531 16.125 52.199219 16.242188 51.929688 16.4375 L 51.929688 19.023438 L 51.359375 19.023438 L 51.359375 15.648438 L 51.785156 15.648438 L 51.910156 16.0625 C 52.207031 15.785156 52.589844 15.617188 52.996094 15.585938 C 53.554688 15.585938 53.960938 15.816406 53.960938 16.589844 L 53.960938 19.023438 Z M 55.523438 19.085938 C 55.269531 19.078125 55.019531 19.03125 54.78125 18.953125 L 54.78125 18.441406 C 55.023438 18.519531 55.269531 18.570312 55.523438 18.59375 C 55.851562 18.59375 56.175781 18.515625 56.175781 18.09375 C 56.175781 17.730469 55.984375 17.660156 55.71875 17.554688 L 55.390625 17.417969 C 54.996094 17.300781 54.726562 16.933594 54.726562 16.523438 C 54.726562 15.914062 55.171875 15.578125 55.832031 15.578125 C 56.089844 15.578125 56.347656 15.621094 56.59375 15.710938 L 56.59375 16.191406 C 56.351562 16.113281 56.101562 16.066406 55.851562 16.058594 C 55.535156 16.058594 55.269531 16.148438 55.269531 16.492188 C 55.269531 16.835938 55.503906 16.914062 55.679688 16.980469 L 56.011719 17.113281 C 56.449219 17.230469 56.746094 17.640625 56.722656 18.097656 C 56.722656 18.933594 56.113281 19.085938 55.523438 19.085938 Z M 61.167969 19.023438 L 61.167969 16.566406 C 61.167969 16.15625 60.976562 16.101562 60.722656 16.101562 C 60.425781 16.140625 60.140625 16.253906 59.898438 16.429688 L 59.898438 19.023438 L 59.328125 19.023438 L 59.328125 16.566406 C 59.328125 16.15625 59.136719 16.101562 58.886719 16.101562 C 58.585938 16.128906 58.296875 16.242188 58.0625 16.429688 L 58.0625 19.023438 L 57.492188 19.023438 L 57.492188 15.648438 L 57.917969 15.648438 L 58.042969 16.058594 C 58.308594 15.789062 58.660156 15.625 59.03125 15.585938 C 59.425781 15.585938 59.773438 15.757812 59.835938 16.089844 C 60.113281 15.804688 60.476562 15.625 60.871094 15.585938 C 61.402344 15.585938 61.738281 15.816406 61.738281 16.59375 L 61.738281 19.027344 Z M 64.492188 19.023438 L 64.429688 18.628906 C 64.226562 18.914062 63.902344 19.085938 63.554688 19.089844 C 63.140625 19.089844 62.570312 18.941406 62.570312 18.03125 C 62.570312 17.105469 63.289062 16.945312 63.859375 16.945312 L 64.410156 16.945312 L 64.410156 16.578125 C 64.410156 16.113281 64.164062 16.066406 63.777344 16.066406 C 63.464844 16.085938 63.15625 16.144531 62.855469 16.238281 L 62.855469 15.753906 C 63.183594 15.644531 63.523438 15.585938 63.863281 15.582031 C 64.476562 15.582031 64.980469 15.746094 64.980469 16.675781 L 64.980469 19.023438 Z M 64.410156 17.296875 L 64 17.304688 C 63.480469 17.308594 63.144531 17.421875 63.144531 17.976562 C 63.144531 18.546875 63.398438 18.621094 63.679688 18.621094 C 63.957031 18.59375 64.214844 18.464844 64.410156 18.265625 Z M 68.097656 19.023438 L 68.097656 16.566406 C 68.097656 16.113281 67.8125 16.101562 67.558594 16.101562 C 67.226562 16.125 66.910156 16.242188 66.640625 16.4375 L 66.640625 19.023438 L 66.070312 19.023438 L 66.070312 15.648438 L 66.496094 15.648438 L 66.621094 16.0625 C 66.917969 15.785156 67.300781 15.617188 67.707031 15.585938 C 68.265625 15.585938 68.671875 15.816406 68.671875 16.589844 L 68.671875 19.023438 Z M 71.425781 19.023438 L 71.359375 18.628906 C 71.160156 18.914062 70.832031 19.085938 70.484375 19.089844 C 70.074219 19.089844 69.503906 18.941406 69.503906 18.03125 C 69.503906 17.105469 70.21875 16.945312 70.789062 16.945312 L 71.34375 16.945312 L 71.34375 16.578125 C 71.34375 16.113281 71.097656 16.066406 70.710938 16.066406 C 70.398438 16.085938 70.089844 16.144531 69.789062 16.238281 L 69.789062 15.753906 C 70.117188 15.644531 70.457031 15.585938 70.796875 15.582031 C 71.410156 15.582031 71.914062 15.746094 71.914062 16.675781 L 71.914062 19.023438 Z M 71.339844 17.296875 L 70.929688 17.304688 C 70.410156 17.308594 70.074219 17.421875 70.074219 17.976562 C 70.074219 18.546875 70.328125 18.621094 70.613281 18.621094 C 70.890625 18.59375 71.148438 18.464844 71.34375 18.265625 Z M 74.910156 16.078125 C 75.0625 16.253906 75.148438 16.480469 75.148438 16.714844 C 75.175781 17.03125 75.0625 17.34375 74.832031 17.566406 C 74.605469 17.789062 74.292969 17.894531 73.976562 17.855469 C 73.808594 17.855469 73.636719 17.828125 73.476562 17.765625 C 73.355469 17.894531 73.28125 17.988281 73.28125 18.09375 C 73.28125 18.285156 73.363281 18.316406 73.660156 18.328125 L 74.441406 18.367188 C 75.074219 18.398438 75.425781 18.589844 75.425781 19.214844 C 75.425781 20.046875 74.804688 20.296875 73.902344 20.296875 C 73.1875 20.296875 72.6875 20.027344 72.6875 19.398438 C 72.699219 19.117188 72.839844 18.859375 73.070312 18.695312 C 72.902344 18.601562 72.800781 18.417969 72.8125 18.226562 C 72.851562 17.976562 72.992188 17.75 73.199219 17.605469 C 72.832031 17.289062 72.703125 16.773438 72.878906 16.316406 C 73.054688 15.863281 73.496094 15.566406 73.980469 15.582031 C 74.234375 15.582031 74.328125 15.644531 74.59375 15.644531 L 75.496094 15.644531 L 75.496094 16.078125 Z M 74.375 18.863281 L 73.511719 18.8125 C 73.460938 18.8125 73.414062 18.804688 73.363281 18.796875 C 73.257812 18.933594 73.199219 19.097656 73.195312 19.269531 C 73.195312 19.632812 73.402344 19.894531 73.898438 19.894531 C 74.625 19.894531 74.886719 19.664062 74.886719 19.265625 C 74.886719 18.945312 74.75 18.882812 74.375 18.863281 Z M 73.976562 15.976562 C 73.519531 15.976562 73.347656 16.226562 73.347656 16.714844 C 73.347656 17.160156 73.558594 17.460938 73.976562 17.460938 C 74.414062 17.460938 74.601562 17.160156 74.601562 16.714844 C 74.601562 16.269531 74.394531 15.976562 73.976562 15.976562 Z M 78.316406 17.507812 L 76.417969 17.507812 C 76.441406 18.59375 76.957031 18.582031 77.28125 18.582031 C 77.574219 18.558594 77.867188 18.503906 78.148438 18.414062 L 78.148438 18.925781 C 77.871094 19.023438 77.578125 19.078125 77.28125 19.085938 C 76.621094 19.085938 75.855469 18.953125 75.855469 17.332031 C 75.855469 15.914062 76.484375 15.582031 77.125 15.582031 C 77.714844 15.582031 78.378906 15.839844 78.328125 17.332031 Z M 77.121094 16.015625 C 76.710938 16.015625 76.453125 16.222656 76.425781 17.121094 L 77.761719 17.121094 C 77.761719 16.164062 77.464844 16.015625 77.121094 16.015625 Z M 82.867188 19.023438 L 82.867188 16.566406 C 82.867188 16.15625 82.675781 16.101562 82.421875 16.101562 C 82.125 16.140625 81.839844 16.253906 81.597656 16.429688 L 81.597656 19.023438 L 81.027344 19.023438 L 81.027344 16.566406 C 81.027344 16.15625 80.835938 16.101562 80.585938 16.101562 C 80.285156 16.125 79.996094 16.242188 79.761719 16.429688 L 79.761719 19.023438 L 79.191406 19.023438 L 79.191406 15.648438 L 79.613281 15.648438 L 79.742188 16.058594 C 80.007812 15.789062 80.355469 15.621094 80.730469 15.585938 C 81.125 15.585938 81.472656 15.757812 81.535156 16.085938 C 81.808594 15.800781 82.175781 15.625 82.566406 15.585938 C 83.101562 15.585938 83.4375 15.816406 83.4375 16.589844 L 83.4375 19.023438 Z M 86.800781 17.515625 L 84.898438 17.515625 C 84.925781 18.597656 85.4375 18.585938 85.761719 18.585938 C 86.058594 18.5625 86.347656 18.507812 86.632812 18.417969 L 86.632812 18.929688 C 86.351562 19.027344 86.058594 19.082031 85.761719 19.089844 C 85.101562 19.089844 84.335938 18.957031 84.335938 17.335938 C 84.335938 15.917969 84.964844 15.585938 85.605469 15.585938 C 86.195312 15.585938 86.859375 15.84375 86.808594 17.335938 Z M 85.601562 16.015625 C 85.191406 16.015625 84.933594 16.222656 84.90625 17.121094 L 86.242188 17.121094 C 86.242188 16.164062 85.945312 16.015625 85.601562 16.015625 Z M 89.703125 19.023438 L 89.703125 16.566406 C 89.703125 16.113281 89.417969 16.101562 89.164062 16.101562 C 88.832031 16.125 88.515625 16.242188 88.246094 16.4375 L 88.246094 19.023438 L 87.675781 19.023438 L 87.675781 15.648438 L 88.097656 15.648438 L 88.226562 16.0625 C 88.523438 15.785156 88.90625 15.617188 89.308594 15.585938 C 89.867188 15.585938 90.273438 15.816406 90.273438 16.589844 L 90.273438 19.023438 Z M 92.152344 19.085938 C 91.671875 19.085938 91.390625 18.902344 91.390625 18.238281 L 91.390625 16.085938 L 90.820312 16.085938 L 90.820312 15.644531 L 91.390625 15.644531 L 91.417969 14.878906 L 91.960938 14.625 L 91.960938 15.644531 L 92.722656 15.644531 L 92.660156 16.082031 L 91.964844 16.082031 L 91.964844 18.257812 C 91.964844 18.554688 92.066406 18.601562 92.28125 18.601562 C 92.472656 18.585938 92.664062 18.546875 92.851562 18.488281 L 92.851562 18.96875 C 92.625 19.042969 92.390625 19.082031 92.15625 19.085938 Z M 92.152344 19.085938 "/>
<path style=" stroke:none;fill-rule:nonzero;fill:rgb(100%,100%,100%);fill-opacity:1;" d="M 14.15625 9.121094 C 13.707031 9.257812 13.300781 9.503906 12.96875 9.835938 L 12.917969 9.878906 C 12.882812 9.90625 12.851562 9.957031 12.867188 9.976562 C 12.871094 9.980469 12.878906 9.984375 12.882812 9.980469 C 12.914062 9.976562 12.9375 9.964844 12.960938 9.949219 C 13 9.925781 13.054688 9.890625 13.121094 9.851562 C 13.339844 9.695312 13.574219 9.558594 13.816406 9.441406 C 14.0625 9.347656 14.335938 9.402344 14.53125 9.578125 C 14.5625 9.613281 14.585938 9.628906 14.617188 9.617188 C 14.644531 9.609375 14.671875 9.589844 14.710938 9.519531 C 14.765625 9.414062 14.785156 9.386719 14.738281 9.332031 C 14.585938 9.171875 14.371094 9.09375 14.152344 9.121094 M 14.011719 9.832031 C 13.695312 9.972656 13.394531 10.140625 13.113281 10.34375 C 13.074219 10.375 13.0625 10.410156 13.105469 10.414062 C 13.160156 10.417969 13.214844 10.40625 13.261719 10.375 C 13.511719 10.230469 13.773438 10.109375 14.042969 10.011719 L 14.058594 10.007812 C 14.039062 10.035156 14.023438 10.070312 14.011719 10.101562 C 13.988281 10.167969 13.984375 10.238281 14 10.304688 L 13.867188 10.316406 C 13.71875 10.332031 13.691406 10.355469 13.683594 10.378906 C 13.679688 10.402344 13.792969 10.4375 13.921875 10.453125 C 14.003906 10.460938 14.082031 10.464844 14.164062 10.464844 C 14.195312 10.464844 14.222656 10.449219 14.242188 10.421875 C 14.328125 10.273438 14.550781 9.957031 14.433594 9.859375 C 14.308594 9.78125 14.148438 9.769531 14.011719 9.832031 "/>
<path style=" stroke:none;fill-rule:nonzero;fill:rgb(100%,100%,100%);fill-opacity:1;" d="M 11.375 19.589844 C 6.910156 19.589844 3.289062 15.949219 3.289062 11.457031 C 3.289062 6.96875 6.910156 3.328125 11.375 3.328125 C 15.839844 3.328125 19.457031 6.96875 19.457031 11.457031 C 19.457031 15.949219 15.839844 19.585938 11.375 19.589844 M 11.375 3.625 C 7.074219 3.625 3.585938 7.132812 3.585938 11.457031 C 3.585938 15.785156 7.074219 19.292969 11.375 19.292969 C 15.675781 19.292969 19.164062 15.785156 19.160156 11.457031 C 19.160156 7.132812 15.675781 3.628906 11.375 3.625 "/>
<path style=" stroke:none;fill-rule:nonzero;fill:rgb(100%,100%,100%);fill-opacity:1;" d="M 7.59375 10.878906 C 7.429688 11.167969 7.222656 11.246094 7.070312 11.15625 C 6.917969 11.070312 6.851562 10.902344 7.046875 10.5625 C 7.277344 10.160156 7.871094 9.59375 7.945312 9.632812 C 7.933594 10.070312 7.816406 10.5 7.59375 10.878906 M 8.472656 11.230469 C 8.152344 11.316406 7.953125 11.222656 7.90625 11.054688 C 7.859375 10.886719 7.929688 10.71875 8.308594 10.617188 C 8.730469 10.507812 9.167969 10.5 9.59375 10.59375 C 9.617188 10.6875 9.054688 11.070312 8.476562 11.230469 M 8.976562 9.796875 C 8.859375 10.113281 8.667969 10.222656 8.507812 10.164062 C 8.34375 10.105469 8.246094 9.953125 8.378906 9.582031 C 8.53125 9.171875 8.78125 8.804688 9.101562 8.511719 C 9.167969 8.945312 9.125 9.386719 8.976562 9.796875 M 10.167969 8.5625 C 10.097656 8.890625 9.925781 9.027344 9.753906 8.992188 C 9.582031 8.957031 9.46875 8.816406 9.550781 8.429688 C 9.644531 8.003906 9.839844 7.605469 10.117188 7.269531 C 10.242188 7.691406 10.261719 8.132812 10.167969 8.5625 M 11.28125 7.300781 C 11.246094 7.632812 11.089844 7.789062 10.914062 7.769531 C 10.742188 7.75 10.609375 7.625 10.652344 7.230469 C 10.703125 6.796875 10.855469 6.382812 11.097656 6.019531 C 11.265625 6.421875 11.328125 6.859375 11.28125 7.296875 M 12.1875 6.125 C 12.105469 6.449219 11.925781 6.578125 11.757812 6.53125 C 11.585938 6.488281 11.476562 6.347656 11.574219 5.964844 C 11.6875 5.542969 11.898438 5.152344 12.191406 4.828125 C 12.300781 5.253906 12.296875 5.699219 12.1875 6.121094 M 9.824219 10.09375 C 9.523438 10.238281 9.308594 10.179688 9.234375 10.019531 C 9.160156 9.863281 9.199219 9.6875 9.554688 9.519531 C 9.949219 9.335938 10.382812 9.253906 10.816406 9.273438 C 10.859375 9.363281 10.367188 9.835938 9.824219 10.09375 M 11.03125 8.804688 C 10.75 8.988281 10.53125 8.960938 10.4375 8.8125 C 10.339844 8.667969 10.355469 8.488281 10.683594 8.269531 C 11.050781 8.035156 11.464844 7.890625 11.898438 7.851562 C 11.953125 7.933594 11.53125 8.472656 11.03125 8.804688 M 12.144531 7.414062 C 11.886719 7.625 11.667969 7.625 11.554688 7.488281 C 11.445312 7.351562 11.441406 7.171875 11.746094 6.921875 C 12.085938 6.648438 12.484375 6.464844 12.910156 6.378906 C 12.972656 6.453125 12.609375 7.035156 12.144531 7.414062 "/>
<path style=" stroke:none;fill-rule:nonzero;fill:rgb(100%,100%,100%);fill-opacity:1;" d="M 7.234375 9.898438 C 7.292969 9.835938 7.339844 9.785156 7.375 9.75 C 7.386719 9.738281 7.398438 9.722656 7.414062 9.710938 C 7.425781 9.699219 7.429688 9.683594 7.421875 9.648438 C 7.394531 9.550781 7.371094 9.449219 7.355469 9.347656 C 7.179688 8.253906 7.597656 7.148438 8.457031 6.457031 C 9.308594 5.921875 10.3125 5.683594 11.316406 5.773438 C 11.332031 5.773438 11.367188 5.769531 11.375 5.746094 C 11.40625 5.667969 11.433594 5.589844 11.464844 5.519531 C 11.476562 5.496094 11.449219 5.480469 11.433594 5.480469 C 10.058594 5.433594 9.023438 5.675781 8.285156 6.214844 C 6.902344 7.21875 7 8.894531 7.0625 9.386719 C 7.089844 9.554688 7.132812 9.722656 7.191406 9.886719 C 7.191406 9.898438 7.199219 9.90625 7.207031 9.90625 C 7.21875 9.910156 7.226562 9.90625 7.234375 9.898438 M 15.613281 11.882812 C 15.574219 11.921875 15.523438 11.945312 15.464844 11.945312 C 15.445312 11.945312 15.425781 11.945312 15.40625 11.941406 C 15.34375 11.933594 15.285156 11.925781 15.230469 11.914062 C 15.113281 11.890625 14.992188 11.886719 14.875 11.902344 C 14.722656 11.917969 14.65625 11.863281 14.628906 11.824219 C 14.601562 11.773438 14.601562 11.710938 14.628906 11.660156 C 14.660156 11.597656 14.6875 11.519531 14.621094 11.523438 C 14.574219 11.523438 14.539062 11.558594 14.480469 11.613281 C 14.390625 11.707031 14.378906 11.847656 14.453125 11.957031 C 14.546875 12.109375 14.730469 12.1875 14.910156 12.144531 L 14.960938 12.136719 C 14.960938 12.269531 14.980469 12.398438 15.015625 12.523438 C 15.039062 12.578125 15.023438 12.644531 14.976562 12.6875 C 14.847656 12.628906 14.699219 12.613281 14.558594 12.648438 C 14.453125 12.664062 14.34375 12.65625 14.238281 12.628906 C 14.183594 12.613281 14.136719 12.617188 14.121094 12.675781 C 14.109375 12.730469 14.304688 12.859375 14.589844 12.839844 C 14.773438 12.832031 14.859375 12.839844 14.894531 12.917969 C 14.925781 12.96875 14.933594 13.03125 14.921875 13.089844 C 14.902344 13.160156 14.847656 13.214844 14.773438 13.234375 C 14.691406 13.261719 14.660156 13.292969 14.648438 13.339844 C 14.640625 13.375 14.679688 13.40625 14.707031 13.421875 C 14.730469 13.433594 14.742188 13.460938 14.730469 13.484375 C 14.722656 13.503906 14.6875 13.585938 14.660156 13.664062 C 14.457031 13.617188 14.238281 13.664062 14.074219 13.800781 C 14.050781 13.625 13.96875 13.464844 13.839844 13.34375 C 13.660156 13.210938 13.433594 13.15625 13.210938 13.191406 C 13.246094 12.960938 13.191406 12.726562 13.0625 12.53125 C 12.941406 12.363281 12.757812 12.253906 12.554688 12.222656 C 12.632812 11.972656 12.621094 11.703125 12.523438 11.460938 C 12.429688 11.261719 12.273438 11.097656 12.078125 10.996094 C 12.179688 10.832031 12.21875 10.632812 12.191406 10.4375 C 12.152344 10.191406 12.03125 9.96875 11.847656 9.800781 L 12.480469 8.808594 C 12.777344 8.691406 13.054688 8.527344 13.296875 8.324219 C 13.460938 8.128906 13.570312 7.894531 13.613281 7.644531 C 14.015625 7.753906 14.4375 7.796875 14.855469 7.773438 C 14.976562 8.214844 15.066406 8.660156 15.121094 9.117188 C 15.128906 9.246094 15.097656 9.375 15.023438 9.480469 C 14.992188 9.527344 14.964844 9.582031 14.941406 9.632812 C 14.867188 9.824219 14.992188 10.066406 15.144531 10.371094 C 15.175781 10.425781 15.203125 10.488281 15.234375 10.542969 C 15.328125 10.742188 15.40625 10.949219 15.46875 11.15625 L 15.5 11.253906 C 15.566406 11.445312 15.628906 11.691406 15.632812 11.714844 C 15.65625 11.769531 15.648438 11.832031 15.613281 11.878906 M 12.828125 17.589844 C 11.261719 17.25 9.789062 16.554688 8.519531 15.566406 C 8.523438 15.554688 8.527344 15.542969 8.527344 15.53125 L 8.527344 13.179688 C 8.722656 13.140625 8.890625 13.015625 8.992188 12.839844 C 9.289062 12.910156 9.605469 12.851562 9.859375 12.675781 C 10.113281 12.503906 10.28125 12.230469 10.328125 11.925781 C 10.355469 11.964844 10.390625 11.996094 10.429688 12.027344 C 10.511719 12.753906 10.785156 13.441406 11.226562 14.019531 C 11.644531 14.539062 12.199219 14.921875 12.832031 15.132812 Z M 15.894531 11.734375 C 15.859375 11.542969 15.804688 11.355469 15.738281 11.171875 L 15.710938 11.078125 C 15.640625 10.855469 15.558594 10.636719 15.457031 10.425781 C 15.429688 10.367188 15.398438 10.308594 15.371094 10.25 C 15.261719 10.042969 15.144531 9.808594 15.175781 9.726562 C 15.191406 9.6875 15.210938 9.652344 15.234375 9.617188 C 15.332031 9.46875 15.382812 9.296875 15.371094 9.117188 C 15.316406 8.640625 15.226562 8.164062 15.097656 7.699219 C 15.222656 7.5625 15.277344 7.375 15.242188 7.1875 C 15.140625 6.125 13.625 5.722656 12.542969 5.570312 C 12.53125 5.570312 12.515625 5.578125 12.515625 5.601562 C 12.503906 5.671875 12.503906 5.75 12.496094 5.832031 C 12.492188 5.847656 12.5 5.863281 12.515625 5.871094 C 13.003906 5.933594 13.484375 6.050781 13.945312 6.226562 C 14.570312 6.484375 14.910156 6.816406 14.949219 7.222656 C 14.964844 7.308594 14.949219 7.398438 14.90625 7.472656 C 14.445312 7.511719 13.980469 7.457031 13.542969 7.308594 C 13.5 7.292969 13.449219 7.296875 13.410156 7.320312 C 13.371094 7.34375 13.34375 7.386719 13.339844 7.433594 C 13.320312 7.683594 13.230469 7.917969 13.082031 8.117188 C 12.851562 8.300781 12.59375 8.449219 12.320312 8.554688 C 12.289062 8.5625 12.265625 8.585938 12.25 8.609375 L 11.53125 9.738281 C 11.523438 9.746094 11.515625 9.757812 11.511719 9.765625 C 11.492188 9.800781 11.488281 9.839844 11.496094 9.878906 C 11.507812 9.917969 11.53125 9.949219 11.566406 9.972656 C 11.742188 10.085938 11.863281 10.273438 11.894531 10.480469 C 11.921875 10.65625 11.859375 10.835938 11.734375 10.957031 C 11.699219 10.992188 11.683594 11.046875 11.695312 11.09375 C 11.707031 11.144531 11.742188 11.183594 11.789062 11.203125 C 11.992188 11.257812 12.15625 11.398438 12.25 11.585938 C 12.332031 11.820312 12.320312 12.078125 12.214844 12.300781 C 12.191406 12.347656 12.199219 12.402344 12.226562 12.441406 C 12.253906 12.484375 12.300781 12.507812 12.351562 12.507812 L 12.359375 12.507812 C 12.535156 12.496094 12.707031 12.566406 12.820312 12.707031 C 12.929688 12.890625 12.953125 13.117188 12.875 13.320312 C 12.859375 13.371094 12.867188 13.425781 12.902344 13.464844 C 12.9375 13.503906 12.992188 13.523438 13.042969 13.515625 C 13.242188 13.445312 13.460938 13.46875 13.644531 13.570312 C 13.769531 13.722656 13.824219 13.917969 13.792969 14.109375 C 13.792969 14.171875 13.832031 14.226562 13.886719 14.25 C 13.945312 14.273438 14.011719 14.257812 14.054688 14.210938 C 14.164062 14.085938 14.398438 13.894531 14.574219 13.953125 C 14.699219 13.980469 14.785156 14.089844 14.789062 14.21875 C 14.796875 14.371094 14.746094 14.519531 14.644531 14.632812 C 14.390625 14.875 14.050781 15.003906 13.703125 14.988281 C 12.828125 14.941406 12.011719 14.523438 11.457031 13.839844 C 11.078125 13.339844 10.828125 12.75 10.738281 12.125 C 10.828125 12.113281 10.917969 12.082031 10.996094 12.035156 C 11.164062 11.945312 11.273438 11.777344 11.289062 11.589844 C 11.253906 11.367188 11.160156 11.160156 11.023438 10.984375 C 10.972656 10.90625 10.910156 10.859375 10.84375 10.886719 C 10.792969 10.90625 10.824219 11.144531 10.925781 11.300781 C 10.972656 11.382812 10.996094 11.472656 10.992188 11.566406 C 10.984375 11.65625 10.929688 11.738281 10.847656 11.777344 C 10.746094 11.832031 10.695312 11.839844 10.621094 11.804688 C 10.574219 11.769531 10.535156 11.722656 10.507812 11.675781 C 10.457031 11.601562 10.398438 11.53125 10.332031 11.46875 C 10.144531 11.296875 9.921875 11.261719 9.808594 11.140625 C 9.714844 11.042969 9.558594 11.089844 9.59375 11.160156 C 9.699219 11.347656 9.847656 11.507812 10.03125 11.621094 L 10.078125 11.652344 C 9.964844 12.226562 9.777344 12.671875 8.929688 12.527344 C 8.867188 12.515625 8.800781 12.550781 8.773438 12.609375 C 8.714844 12.785156 8.546875 12.898438 8.367188 12.894531 C 8.199219 12.886719 8.050781 12.785156 7.976562 12.632812 C 7.945312 12.300781 7.957031 11.960938 8.007812 11.628906 L 8.011719 11.597656 C 8.007812 11.574219 8.011719 11.550781 8.015625 11.527344 C 8.015625 11.503906 8.007812 11.484375 7.988281 11.476562 C 7.890625 11.441406 7.808594 11.378906 7.746094 11.300781 C 7.738281 11.289062 7.726562 11.292969 7.726562 11.3125 C 7.726562 11.402344 7.722656 11.492188 7.714844 11.570312 L 7.710938 11.601562 C 7.648438 11.976562 7.644531 12.355469 7.699219 12.730469 C 7.792969 12.957031 7.988281 13.125 8.226562 13.171875 L 8.226562 15.320312 C 8.085938 15.199219 7.945312 15.070312 7.804688 14.9375 C 7.765625 14.894531 7.707031 14.878906 7.65625 14.890625 C 7.601562 14.90625 7.558594 14.949219 7.546875 15.003906 C 7.535156 15.058594 7.554688 15.117188 7.601562 15.152344 C 9.617188 17.082031 11.660156 17.652344 13.578125 18.074219 C 13.589844 18.074219 13.601562 18.074219 13.609375 18.074219 C 13.6875 18.074219 13.75 18.019531 13.757812 17.941406 C 13.765625 17.867188 13.714844 17.796875 13.640625 17.78125 C 13.46875 17.742188 13.296875 17.703125 13.125 17.664062 L 13.125 15.210938 C 13.296875 15.253906 13.472656 15.277344 13.648438 15.277344 L 13.71875 15.277344 C 14.148438 15.296875 14.566406 15.132812 14.871094 14.824219 C 15.023438 14.644531 15.101562 14.414062 15.082031 14.175781 C 15.066406 14.003906 14.980469 13.84375 14.839844 13.742188 C 14.859375 13.589844 14.925781 13.449219 15.035156 13.34375 C 15.097656 13.257812 15.132812 13.15625 15.136719 13.050781 C 15.136719 13.03125 15.132812 13.007812 15.128906 12.988281 L 15.128906 12.972656 C 15.125 12.941406 15.117188 12.914062 15.105469 12.886719 C 15.105469 12.882812 15.101562 12.875 15.101562 12.871094 C 15.101562 12.863281 15.109375 12.847656 15.132812 12.816406 C 15.222656 12.722656 15.253906 12.585938 15.214844 12.460938 C 15.1875 12.359375 15.167969 12.253906 15.164062 12.148438 L 15.171875 12.148438 C 15.214844 12.160156 15.269531 12.167969 15.339844 12.175781 C 15.375 12.183594 15.414062 12.183594 15.449219 12.183594 L 15.460938 12.183594 C 15.589844 12.191406 15.71875 12.144531 15.808594 12.050781 C 15.886719 11.964844 15.917969 11.84375 15.894531 11.730469 "/>
<path style=" stroke:none;fill-rule:nonzero;fill:rgb(100%,100%,100%);fill-opacity:1;" d="M 2.277344 10.957031 C 2.539062 6.09375 6.535156 2.285156 11.375 2.285156 C 16.214844 2.285156 20.210938 6.09375 20.472656 10.957031 L 22.753906 10.957031 C 22.527344 4.800781 17.5 -0.0742188 11.375 -0.0742188 C 5.25 -0.0742188 0.222656 4.800781 0 10.957031 Z M 2.277344 10.957031 "/>
<path style=" stroke:none;fill-rule:nonzero;fill:rgb(100%,100%,100%);fill-opacity:1;" d="M 20.472656 11.957031 C 20.210938 16.820312 16.214844 20.628906 11.375 20.628906 C 6.535156 20.628906 2.539062 16.820312 2.277344 11.957031 L 0 11.957031 C 0.234375 18.105469 5.257812 22.96875 11.375 22.96875 C 17.492188 22.96875 22.515625 18.105469 22.75 11.957031 Z M 20.472656 11.957031 "/>
</g>
</svg>
