<?xml version="1.0" encoding="UTF-8"?>
<svg xmlns="http://www.w3.org/2000/svg" xmlns:xlink="http://www.w3.org/1999/xlink" width="px" height="px" viewBox="0 0 38 44" version="1.1">
<g id="surface1">
<path style=" stroke:none;fill-rule:nonzero;fill:rgb(11.764706%,11.764706%,11.764706%);fill-opacity:1;" d="M 7.621094 32.933594 L 3.8125 30.738281 Z M 7.621094 32.933594 "/>
<path style=" stroke:none;fill-rule:nonzero;fill:rgb(11.764706%,11.764706%,11.764706%);fill-opacity:1;" d="M 11.429688 35.128906 L 7.621094 32.933594 Z M 11.429688 35.128906 "/>
<path style=" stroke:none;fill-rule:nonzero;fill:rgb(11.764706%,11.764706%,11.764706%);fill-opacity:1;" d="M 15.019531 37.199219 L 14.78125 37.0625 L 11.429688 35.128906 Z M 15.019531 37.199219 "/>
<path style=" stroke:none;fill-rule:nonzero;fill:rgb(11.764706%,11.764706%,11.764706%);fill-opacity:1;" d="M 19.050781 39.523438 L 15.242188 37.328125 Z M 19.050781 39.523438 "/>
<path style=" stroke:none;fill-rule:nonzero;fill:rgb(11.764706%,11.764706%,11.764706%);fill-opacity:1;" d="M 30.484375 32.933594 L 26.671875 35.128906 L 22.863281 37.324219 L 19.050781 39.519531 L 19.050781 43.914062 L 22.863281 41.71875 L 26.671875 39.523438 L 30.484375 37.324219 L 38.101562 32.933594 L 38.101562 28.542969 Z M 30.484375 32.933594 "/>
<path style=" stroke:none;fill-rule:nonzero;fill:rgb(11.764706%,11.764706%,11.764706%);fill-opacity:1;" d="M 3.8125 21.957031 L 6.464844 23.488281 Z M 3.8125 21.957031 "/>
<path style=" stroke:none;fill-rule:nonzero;fill:rgb(11.764706%,11.764706%,11.764706%);fill-opacity:1;" d="M 7.621094 24.152344 L 10.386719 25.746094 L 8.628906 24.734375 L 7.621094 24.15625 Z M 7.621094 24.152344 "/>
<path style=" stroke:none;fill-rule:nonzero;fill:rgb(11.764706%,11.764706%,11.764706%);fill-opacity:1;" d="M 11.429688 26.347656 L 14.78125 28.277344 L 14.21875 27.953125 L 11.433594 26.347656 Z M 11.429688 26.347656 "/>
<path style=" stroke:none;fill-rule:nonzero;fill:rgb(11.764706%,11.764706%,11.764706%);fill-opacity:1;" d="M 15.242188 28.542969 L 19.050781 30.738281 Z M 15.242188 28.542969 "/>
<path style=" stroke:none;fill-rule:nonzero;fill:rgb(11.764706%,11.764706%,11.764706%);fill-opacity:1;" d="M 30.484375 24.152344 L 26.671875 26.347656 L 22.863281 28.542969 L 19.050781 30.738281 L 19.050781 35.128906 L 22.863281 32.933594 L 26.671875 30.738281 L 30.484375 28.542969 L 38.101562 24.152344 L 38.101562 19.761719 Z M 30.484375 24.152344 "/>
<path style=" stroke:none;fill-rule:nonzero;fill:rgb(11.764706%,11.764706%,11.764706%);fill-opacity:1;" d="M 3.8125 13.171875 L 6.636719 14.800781 L 5.578125 14.191406 Z M 3.8125 13.171875 "/>
<path style=" stroke:none;fill-rule:nonzero;fill:rgb(11.764706%,11.764706%,11.764706%);fill-opacity:1;" d="M 7.621094 15.367188 L 10.667969 17.125 L 9.84375 16.648438 Z M 7.621094 15.367188 "/>
<path style=" stroke:none;fill-rule:nonzero;fill:rgb(11.764706%,11.764706%,11.764706%);fill-opacity:1;" d="M 11.429688 17.566406 L 14.253906 19.191406 L 13.195312 18.582031 Z M 11.429688 17.566406 "/>
<path style=" stroke:none;fill-rule:nonzero;fill:rgb(11.764706%,11.764706%,11.764706%);fill-opacity:1;" d="M 15.242188 19.761719 L 19.050781 21.957031 Z M 15.242188 19.761719 "/>
<path style=" stroke:none;fill-rule:nonzero;fill:rgb(11.764706%,11.764706%,11.764706%);fill-opacity:1;" d="M 38.101562 10.976562 L 34.292969 13.171875 L 32.414062 14.253906 L 30.480469 15.367188 L 26.671875 17.5625 L 22.859375 19.757812 L 19.050781 21.953125 L 19.050781 26.347656 L 22.859375 24.152344 L 26.671875 21.957031 L 30.480469 19.761719 L 34.292969 17.566406 L 38.101562 15.371094 Z M 38.101562 10.976562 "/>
<path style=" stroke:none;fill-rule:nonzero;fill:rgb(82.745098%,61.176471%,12.54902%);fill-opacity:1;" d="M 30.480469 28.542969 L 26.671875 30.738281 L 22.859375 32.933594 L 19.050781 35.128906 L 15.238281 32.933594 L 11.429688 30.738281 L 9.085938 29.386719 L 7.621094 28.542969 L 3.8125 26.347656 L 0 28.542969 L 3.8125 30.738281 L 11.429688 35.128906 L 14.78125 37.058594 L 15.019531 37.195312 L 15.242188 37.324219 L 19.050781 39.519531 L 22.859375 37.324219 L 26.671875 35.128906 L 34.289062 30.738281 L 38.101562 28.542969 L 34.289062 26.347656 Z M 30.480469 28.542969 "/>
<path style=" stroke:none;fill-rule:nonzero;fill:rgb(82.745098%,61.176471%,12.54902%);fill-opacity:1;" d="M 30.480469 19.761719 L 26.671875 21.957031 L 22.859375 24.152344 L 19.050781 26.347656 L 15.242188 24.152344 L 13.402344 23.09375 L 11.429688 21.957031 L 8.605469 20.328125 L 7.621094 19.757812 L 3.8125 17.5625 L 0 19.757812 L 2.65625 21.289062 L 3.8125 21.953125 L 6.46875 23.484375 L 7.621094 24.148438 L 8.628906 24.730469 L 10.390625 25.742188 L 11.433594 26.34375 L 14.21875 27.949219 L 14.78125 28.273438 L 15.242188 28.539062 L 19.050781 30.734375 L 21.25 29.46875 L 22.859375 28.539062 L 26.667969 26.34375 L 30.480469 24.148438 L 34.289062 21.953125 L 38.101562 19.757812 L 34.289062 17.5625 Z M 30.480469 19.761719 "/>
<path style=" stroke:none;fill-rule:nonzero;fill:rgb(13.72549%,13.72549%,13.72549%);fill-opacity:1;" d="M 3.808594 30.734375 L 0 28.539062 L 0 32.933594 L 3.8125 35.128906 L 3.8125 30.734375 Z M 3.808594 30.734375 "/>
<path style=" stroke:none;fill-rule:nonzero;fill:rgb(13.72549%,13.72549%,13.72549%);fill-opacity:1;" d="M 7.621094 32.933594 L 3.8125 30.738281 L 3.8125 35.128906 L 7.621094 37.324219 Z M 7.621094 32.933594 "/>
<path style=" stroke:none;fill-rule:nonzero;fill:rgb(13.72549%,13.72549%,13.72549%);fill-opacity:1;" d="M 11.429688 35.132812 L 7.621094 32.9375 L 7.621094 37.328125 L 11.429688 39.523438 Z M 11.429688 35.132812 "/>
<path style=" stroke:none;fill-rule:nonzero;fill:rgb(13.72549%,13.72549%,13.72549%);fill-opacity:1;" d="M 15.019531 37.199219 L 11.429688 35.128906 L 11.429688 39.523438 L 15.242188 41.71875 L 15.242188 37.324219 Z M 15.019531 37.199219 "/>
<path style=" stroke:none;fill-rule:nonzero;fill:rgb(13.72549%,13.72549%,13.72549%);fill-opacity:1;" d="M 34.289062 30.738281 L 30.480469 32.933594 Z M 34.289062 30.738281 "/>
<path style=" stroke:none;fill-rule:nonzero;fill:rgb(13.72549%,13.72549%,13.72549%);fill-opacity:1;" d="M 30.480469 32.933594 L 26.671875 35.128906 Z M 30.480469 32.933594 "/>
<path style=" stroke:none;fill-rule:nonzero;fill:rgb(13.72549%,13.72549%,13.72549%);fill-opacity:1;" d="M 26.671875 35.132812 L 22.859375 37.328125 Z M 26.671875 35.132812 "/>
<path style=" stroke:none;fill-rule:nonzero;fill:rgb(13.72549%,13.72549%,13.72549%);fill-opacity:1;" d="M 22.859375 37.328125 L 19.050781 39.523438 Z M 22.859375 37.328125 "/>
<path style=" stroke:none;fill-rule:nonzero;fill:rgb(13.72549%,13.72549%,13.72549%);fill-opacity:1;" d="M 19.050781 39.523438 L 15.242188 37.324219 L 15.242188 41.71875 L 19.050781 43.914062 L 19.050781 39.519531 Z M 19.050781 39.523438 "/>
<path style=" stroke:none;fill-rule:nonzero;fill:rgb(13.72549%,13.72549%,13.72549%);fill-opacity:1;" d="M 3.8125 26.347656 L 7.621094 28.542969 L 9.085938 29.386719 L 11.429688 30.738281 L 15.242188 32.933594 L 19.050781 35.128906 L 19.050781 30.738281 L 15.242188 28.542969 L 14.777344 28.277344 L 11.429688 26.347656 L 10.386719 25.746094 L 7.621094 24.152344 L 6.464844 23.488281 L 3.808594 21.957031 L 2.65625 21.292969 L 0 19.761719 L 0 24.15625 L 3.808594 26.351562 Z M 3.8125 26.347656 "/>
<path style=" stroke:none;fill-rule:nonzero;fill:rgb(13.72549%,13.72549%,13.72549%);fill-opacity:1;" d="M 34.289062 21.953125 L 30.480469 24.148438 Z M 34.289062 21.953125 "/>
<path style=" stroke:none;fill-rule:nonzero;fill:rgb(13.72549%,13.72549%,13.72549%);fill-opacity:1;" d="M 30.480469 24.152344 L 26.671875 26.347656 Z M 30.480469 24.152344 "/>
<path style=" stroke:none;fill-rule:nonzero;fill:rgb(13.72549%,13.72549%,13.72549%);fill-opacity:1;" d="M 26.671875 26.347656 L 22.859375 28.542969 Z M 26.671875 26.347656 "/>
<path style=" stroke:none;fill-rule:nonzero;fill:rgb(13.72549%,13.72549%,13.72549%);fill-opacity:1;" d="M 21.253906 29.46875 L 19.054688 30.734375 L 22.863281 28.539062 Z M 21.253906 29.46875 "/>
<path style=" stroke:none;fill-rule:nonzero;fill:rgb(13.72549%,13.72549%,13.72549%);fill-opacity:1;" d="M 3.8125 17.566406 L 7.621094 19.761719 L 8.605469 20.332031 L 11.429688 21.957031 L 13.402344 23.09375 L 15.238281 24.152344 L 19.050781 26.347656 L 19.050781 21.953125 L 15.238281 19.757812 L 14.253906 19.1875 L 11.429688 17.5625 L 10.664062 17.121094 L 7.621094 15.367188 L 6.632812 14.796875 L 3.808594 13.167969 L 0 10.972656 L 0 15.363281 L 3.808594 17.558594 Z M 3.8125 17.566406 "/>
<path style=" stroke:none;fill-rule:nonzero;fill:rgb(13.72549%,13.72549%,13.72549%);fill-opacity:1;" d="M 34.292969 13.171875 L 32.414062 14.257812 Z M 34.292969 13.171875 "/>
<path style=" stroke:none;fill-rule:nonzero;fill:rgb(13.72549%,13.72549%,13.72549%);fill-opacity:1;" d="M 26.671875 17.566406 L 30.480469 15.371094 L 28.207031 16.679688 Z M 26.671875 17.566406 "/>
<path style=" stroke:none;fill-rule:nonzero;fill:rgb(13.72549%,13.72549%,13.72549%);fill-opacity:1;" d="M 26.671875 17.566406 L 22.859375 19.761719 Z M 26.671875 17.566406 "/>
<path style=" stroke:none;fill-rule:nonzero;fill:rgb(13.72549%,13.72549%,13.72549%);fill-opacity:1;" d="M 22.859375 19.761719 L 19.050781 21.957031 Z M 22.859375 19.761719 "/>
<path style=" stroke:none;fill-rule:nonzero;fill:rgb(33.72549%,33.72549%,33.72549%);fill-opacity:1;" d="M 3.8125 13.171875 L 5.578125 14.191406 L 6.636719 14.800781 L 7.625 15.371094 L 9.847656 16.652344 L 10.667969 17.128906 L 11.433594 17.570312 L 13.199219 18.582031 L 14.257812 19.191406 L 15.246094 19.761719 L 19.054688 21.957031 L 22.863281 19.761719 L 26.675781 17.566406 L 28.210938 16.679688 L 30.488281 15.371094 L 32.417969 14.257812 L 34.296875 13.175781 L 38.109375 10.980469 L 35.421875 9.429688 L 34.296875 8.78125 L 31.914062 7.410156 L 30.484375 6.585938 L 28.59375 5.496094 L 26.675781 4.390625 L 25.730469 3.84375 L 22.867188 2.195312 L 19.054688 0 L 11.4375 4.390625 L 7.625 6.585938 L 3.816406 8.78125 L 0.00390625 10.976562 L 3.816406 13.171875 Z M 3.8125 13.171875 "/>
</g>
</svg>
